<svg xmlns="http://www.w3.org/2000/svg" viewBox="0 0 512 320" width="512" height="320">
<title>Cação-anjo</title>
<defs>
<linearGradient id="gBody" x1="0" y1="0" x2="0" y2="1"><stop offset="0" stop-color="#857560"/><stop offset="0.42" stop-color="#9A8A70"/><stop offset="0.78" stop-color="#AC9C82"/><stop offset="1" stop-color="#AC9C82"/></linearGradient>
<pattern id="pScale" width="16.1" height="13.0" patternUnits="userSpaceOnUse"><path d="M4.0 -6.5 A4.0 6.5 0 0 1 4.0 6.5 M4.0 6.5 A4.0 6.5 0 0 1 4.0 19.5 M12.1 0.0 A4.0 6.5 0 0 1 12.1 13.0 " fill="none" stroke="#0B1A1E" stroke-width="1.1"/></pattern>
<clipPath id="cBody"><path d="M22.00 160.00 C22.53 155.76 22.53 141.43 25.18 134.53 C27.84 127.63 32.08 122.33 37.92 118.61 C43.76 114.90 54.37 113.04 60.20 112.24 C66.04 111.45 68.69 116.49 72.94 113.84 C77.18 111.18 78.24 105.61 85.67 96.33 C93.10 87.04 106.90 67.14 117.51 58.12 C128.12 49.10 140.86 42.73 149.35 42.20 C157.84 41.67 164.20 45.92 168.45 54.94 C172.69 63.96 171.63 86.78 174.82 96.33 C178.00 105.88 181.18 112.78 187.55 112.24 C193.92 111.71 204.53 97.92 213.02 93.14 C221.51 88.37 232.12 82.00 238.49 83.59 C244.86 85.18 248.04 95.27 251.22 102.69 C254.41 110.12 250.69 122.33 257.59 128.16 C264.49 134.00 273.51 135.06 292.61 137.71 C311.71 140.37 348.33 142.49 372.20 144.08 C396.08 145.67 425.27 142.49 435.88 147.27 C446.49 152.04 446.49 167.96 435.88 172.73 C425.27 177.51 396.08 174.33 372.20 175.92 C348.33 177.51 311.71 179.63 292.61 182.29 C273.51 184.94 264.49 186.00 257.59 191.84 C250.69 197.67 254.41 209.88 251.22 217.31 C248.04 224.73 244.86 234.82 238.49 236.41 C232.12 238.00 221.51 231.63 213.02 226.86 C204.53 222.08 193.92 208.29 187.55 207.76 C181.18 207.22 178.00 214.12 174.82 223.67 C171.63 233.22 172.69 256.04 168.45 265.06 C164.20 274.08 157.84 278.33 149.35 277.80 C140.86 277.27 128.12 270.90 117.51 261.88 C106.90 252.86 93.10 232.96 85.67 223.67 C78.24 214.39 77.18 208.82 72.94 206.16 C68.69 203.51 66.04 208.55 60.20 207.76 C54.37 206.96 43.76 205.10 37.92 201.39 C32.08 197.67 27.84 192.37 25.18 185.47 C22.53 178.57 22.53 164.24 22.00 160.00 C21.47 155.76 21.47 164.24 22.00 160.00 Z"/></clipPath>
</defs>
<path d="M423.14 147.27 C428.45 138.78 454.98 121.80 454.98 121.80 C454.98 121.80 477.80 124.98 483.63 131.35 C489.47 137.71 490.00 149.39 490.00 160.00 C490.00 170.61 489.47 186.53 483.63 195.02 C477.80 203.51 454.98 210.94 454.98 210.94 C454.98 210.94 428.45 183.35 423.14 172.73 C417.84 162.12 417.84 155.76 423.14 147.27 Z" fill="#7A6A54" stroke="#0B1A1E" stroke-width="2.40" stroke-linejoin="round"/>
<path d="M22.00 160.00 C22.53 155.76 22.53 141.43 25.18 134.53 C27.84 127.63 32.08 122.33 37.92 118.61 C43.76 114.90 54.37 113.04 60.20 112.24 C66.04 111.45 68.69 116.49 72.94 113.84 C77.18 111.18 78.24 105.61 85.67 96.33 C93.10 87.04 106.90 67.14 117.51 58.12 C128.12 49.10 140.86 42.73 149.35 42.20 C157.84 41.67 164.20 45.92 168.45 54.94 C172.69 63.96 171.63 86.78 174.82 96.33 C178.00 105.88 181.18 112.78 187.55 112.24 C193.92 111.71 204.53 97.92 213.02 93.14 C221.51 88.37 232.12 82.00 238.49 83.59 C244.86 85.18 248.04 95.27 251.22 102.69 C254.41 110.12 250.69 122.33 257.59 128.16 C264.49 134.00 273.51 135.06 292.61 137.71 C311.71 140.37 348.33 142.49 372.20 144.08 C396.08 145.67 425.27 142.49 435.88 147.27 C446.49 152.04 446.49 167.96 435.88 172.73 C425.27 177.51 396.08 174.33 372.20 175.92 C348.33 177.51 311.71 179.63 292.61 182.29 C273.51 184.94 264.49 186.00 257.59 191.84 C250.69 197.67 254.41 209.88 251.22 217.31 C248.04 224.73 244.86 234.82 238.49 236.41 C232.12 238.00 221.51 231.63 213.02 226.86 C204.53 222.08 193.92 208.29 187.55 207.76 C181.18 207.22 178.00 214.12 174.82 223.67 C171.63 233.22 172.69 256.04 168.45 265.06 C164.20 274.08 157.84 278.33 149.35 277.80 C140.86 277.27 128.12 270.90 117.51 261.88 C106.90 252.86 93.10 232.96 85.67 223.67 C78.24 214.39 77.18 208.82 72.94 206.16 C68.69 203.51 66.04 208.55 60.20 207.76 C54.37 206.96 43.76 205.10 37.92 201.39 C32.08 197.67 27.84 192.37 25.18 185.47 C22.53 178.57 22.53 164.24 22.00 160.00 C21.47 155.76 21.47 164.24 22.00 160.00 Z" fill="url(#gBody)"/>
<g clip-path="url(#cBody)">
<circle cx="213.29" cy="208.25" r="1.76" fill="#3A2E22" opacity="0.60"/>
<circle cx="104.96" cy="173.40" r="2.17" fill="#3A2E22" opacity="0.60"/>
<circle cx="203.50" cy="109.41" r="1.69" fill="#3A2E22" opacity="0.60"/>
<circle cx="128.91" cy="157.19" r="2.35" fill="#3A2E22" opacity="0.60"/>
<circle cx="49.25" cy="160.22" r="2.18" fill="#3A2E22" opacity="0.60"/>
<circle cx="174.74" cy="112.18" r="1.52" fill="#3A2E22" opacity="0.60"/>
<circle cx="88.71" cy="182.35" r="1.96" fill="#3A2E22" opacity="0.60"/>
<circle cx="64.00" cy="123.21" r="1.52" fill="#3A2E22" opacity="0.60"/>
<circle cx="416.28" cy="154.29" r="2.33" fill="#3A2E22" opacity="0.60"/>
<circle cx="105.36" cy="91.55" r="2.34" fill="#3A2E22" opacity="0.60"/>
<circle cx="199.42" cy="186.58" r="1.47" fill="#3A2E22" opacity="0.60"/>
<circle cx="234.97" cy="192.28" r="1.80" fill="#3A2E22" opacity="0.60"/>
<circle cx="196.10" cy="163.38" r="1.37" fill="#3A2E22" opacity="0.60"/>
<circle cx="98.21" cy="121.11" r="2.04" fill="#3A2E22" opacity="0.60"/>
<circle cx="113.78" cy="195.80" r="2.28" fill="#3A2E22" opacity="0.60"/>
<circle cx="98.46" cy="107.81" r="1.70" fill="#3A2E22" opacity="0.60"/>
<circle cx="67.80" cy="155.19" r="2.01" fill="#3A2E22" opacity="0.60"/>
<circle cx="134.56" cy="231.30" r="1.34" fill="#3A2E22" opacity="0.60"/>
<circle cx="163.83" cy="90.48" r="1.71" fill="#3A2E22" opacity="0.60"/>
<circle cx="158.91" cy="67.63" r="2.48" fill="#3A2E22" opacity="0.60"/>
<circle cx="342.73" cy="167.70" r="1.55" fill="#3A2E22" opacity="0.60"/>
<circle cx="266.85" cy="153.94" r="2.31" fill="#3A2E22" opacity="0.60"/>
<circle cx="399.78" cy="165.04" r="2.31" fill="#3A2E22" opacity="0.60"/>
<circle cx="132.45" cy="169.11" r="2.49" fill="#3A2E22" opacity="0.60"/>
<circle cx="229.80" cy="198.66" r="2.46" fill="#3A2E22" opacity="0.60"/>
<circle cx="227.03" cy="97.44" r="1.78" fill="#3A2E22" opacity="0.60"/>
<circle cx="87.36" cy="211.72" r="2.49" fill="#3A2E22" opacity="0.60"/>
<circle cx="183.54" cy="200.25" r="1.47" fill="#3A2E22" opacity="0.60"/>
<circle cx="152.27" cy="93.62" r="1.64" fill="#3A2E22" opacity="0.60"/>
<circle cx="38.51" cy="194.10" r="1.86" fill="#3A2E22" opacity="0.60"/>
<circle cx="169.91" cy="197.49" r="2.05" fill="#3A2E22" opacity="0.60"/>
<circle cx="241.47" cy="217.54" r="2.19" fill="#3A2E22" opacity="0.60"/>
<circle cx="249.79" cy="200.66" r="2.07" fill="#3A2E22" opacity="0.60"/>
<circle cx="270.39" cy="162.91" r="2.27" fill="#3A2E22" opacity="0.60"/>
<circle cx="125.33" cy="64.80" r="1.35" fill="#3A2E22" opacity="0.60"/>
<circle cx="224.32" cy="116.49" r="2.14" fill="#3A2E22" opacity="0.60"/>
<circle cx="268.01" cy="136.48" r="1.56" fill="#3A2E22" opacity="0.60"/>
<circle cx="220.47" cy="205.37" r="1.78" fill="#3A2E22" opacity="0.60"/>
<circle cx="161.97" cy="161.48" r="1.92" fill="#3A2E22" opacity="0.60"/>
<circle cx="162.31" cy="109.66" r="2.31" fill="#3A2E22" opacity="0.60"/>
<circle cx="169.74" cy="65.62" r="2.32" fill="#3A2E22" opacity="0.60"/>
<circle cx="165.00" cy="153.27" r="1.55" fill="#3A2E22" opacity="0.60"/>
<circle cx="115.59" cy="143.78" r="2.25" fill="#3A2E22" opacity="0.60"/>
<circle cx="79.69" cy="149.50" r="1.50" fill="#3A2E22" opacity="0.60"/>
<circle cx="65.71" cy="137.16" r="2.05" fill="#3A2E22" opacity="0.60"/>
<circle cx="136.10" cy="203.40" r="1.45" fill="#3A2E22" opacity="0.60"/>
<circle cx="204.99" cy="171.66" r="2.49" fill="#3A2E22" opacity="0.60"/>
<circle cx="262.53" cy="179.88" r="1.44" fill="#3A2E22" opacity="0.60"/>
<circle cx="59.11" cy="186.94" r="2.33" fill="#3A2E22" opacity="0.60"/>
<circle cx="335.04" cy="162.24" r="1.27" fill="#3A2E22" opacity="0.60"/>
<circle cx="158.40" cy="105.07" r="2.60" fill="#E2D6BC" opacity="0.50"/>
<circle cx="273.74" cy="180.18" r="2.29" fill="#E2D6BC" opacity="0.50"/>
<circle cx="107.20" cy="204.36" r="2.52" fill="#E2D6BC" opacity="0.50"/>
<circle cx="276.53" cy="151.11" r="2.18" fill="#E2D6BC" opacity="0.50"/>
<circle cx="173.41" cy="108.55" r="2.23" fill="#E2D6BC" opacity="0.50"/>
<circle cx="412.45" cy="146.90" r="2.57" fill="#E2D6BC" opacity="0.50"/>
<circle cx="363.71" cy="151.83" r="2.16" fill="#E2D6BC" opacity="0.50"/>
<circle cx="246.97" cy="130.24" r="1.96" fill="#E2D6BC" opacity="0.50"/>
<circle cx="77.20" cy="126.15" r="2.02" fill="#E2D6BC" opacity="0.50"/>
<circle cx="247.91" cy="104.51" r="2.92" fill="#E2D6BC" opacity="0.50"/>
<circle cx="137.83" cy="80.36" r="2.92" fill="#E2D6BC" opacity="0.50"/>
<circle cx="136.05" cy="124.58" r="3.03" fill="#E2D6BC" opacity="0.50"/>
<circle cx="180.23" cy="203.35" r="2.60" fill="#E2D6BC" opacity="0.50"/>
<circle cx="26.56" cy="140.03" r="2.68" fill="#E2D6BC" opacity="0.50"/>
<circle cx="113.81" cy="216.97" r="2.33" fill="#E2D6BC" opacity="0.50"/>
<circle cx="98.71" cy="184.73" r="3.08" fill="#E2D6BC" opacity="0.50"/>
<circle cx="200.47" cy="178.49" r="2.05" fill="#E2D6BC" opacity="0.50"/>
<circle cx="317.34" cy="172.34" r="2.47" fill="#E2D6BC" opacity="0.50"/>
<circle cx="68.45" cy="182.25" r="2.71" fill="#E2D6BC" opacity="0.50"/>
<circle cx="334.41" cy="154.20" r="2.89" fill="#E2D6BC" opacity="0.50"/>
<circle cx="152.47" cy="68.12" r="2.37" fill="#E2D6BC" opacity="0.50"/>
<circle cx="99.90" cy="103.00" r="3.15" fill="#E2D6BC" opacity="0.50"/>
<circle cx="285.14" cy="183.74" r="3.12" fill="#E2D6BC" opacity="0.50"/>
<circle cx="217.31" cy="189.99" r="1.91" fill="#E2D6BC" opacity="0.50"/>
<circle cx="198.26" cy="205.60" r="2.76" fill="#E2D6BC" opacity="0.50"/>
<circle cx="38.77" cy="135.29" r="2.46" fill="#E2D6BC" opacity="0.50"/>
<circle cx="137.08" cy="228.06" r="2.91" fill="#E2D6BC" opacity="0.50"/>
<circle cx="176.06" cy="145.82" r="2.67" fill="#E2D6BC" opacity="0.50"/>
<circle cx="101.85" cy="195.40" r="2.18" fill="#E2D6BC" opacity="0.50"/>
<circle cx="115.84" cy="248.82" r="1.99" fill="#E2D6BC" opacity="0.50"/>
<path d="M85.67 160.00 C106.90 160.00 170.57 160.00 213.02 160.00 C255.47 160.00 319.14 160.00 340.37 160.00" fill="none" stroke="#FFFFFF" stroke-width="5.00" stroke-linejoin="round" stroke-linecap="round" opacity="0.16"/>
</g>
<path d="M22.00 160.00 C22.53 155.76 22.53 141.43 25.18 134.53 C27.84 127.63 32.08 122.33 37.92 118.61 C43.76 114.90 54.37 113.04 60.20 112.24 C66.04 111.45 68.69 116.49 72.94 113.84 C77.18 111.18 78.24 105.61 85.67 96.33 C93.10 87.04 106.90 67.14 117.51 58.12 C128.12 49.10 140.86 42.73 149.35 42.20 C157.84 41.67 164.20 45.92 168.45 54.94 C172.69 63.96 171.63 86.78 174.82 96.33 C178.00 105.88 181.18 112.78 187.55 112.24 C193.92 111.71 204.53 97.92 213.02 93.14 C221.51 88.37 232.12 82.00 238.49 83.59 C244.86 85.18 248.04 95.27 251.22 102.69 C254.41 110.12 250.69 122.33 257.59 128.16 C264.49 134.00 273.51 135.06 292.61 137.71 C311.71 140.37 348.33 142.49 372.20 144.08 C396.08 145.67 425.27 142.49 435.88 147.27 C446.49 152.04 446.49 167.96 435.88 172.73 C425.27 177.51 396.08 174.33 372.20 175.92 C348.33 177.51 311.71 179.63 292.61 182.29 C273.51 184.94 264.49 186.00 257.59 191.84 C250.69 197.67 254.41 209.88 251.22 217.31 C248.04 224.73 244.86 234.82 238.49 236.41 C232.12 238.00 221.51 231.63 213.02 226.86 C204.53 222.08 193.92 208.29 187.55 207.76 C181.18 207.22 178.00 214.12 174.82 223.67 C171.63 233.22 172.69 256.04 168.45 265.06 C164.20 274.08 157.84 278.33 149.35 277.80 C140.86 277.27 128.12 270.90 117.51 261.88 C106.90 252.86 93.10 232.96 85.67 223.67 C78.24 214.39 77.18 208.82 72.94 206.16 C68.69 203.51 66.04 208.55 60.20 207.76 C54.37 206.96 43.76 205.10 37.92 201.39 C32.08 197.67 27.84 192.37 25.18 185.47 C22.53 178.57 22.53 164.24 22.00 160.00 C21.47 155.76 21.47 164.24 22.00 160.00 Z" fill="none" stroke="#0B1A1E" stroke-width="3.00" stroke-linejoin="round"/>
<path d="M334.00 160.00 C334.00 157.88 339.25 153.63 344.03 153.63 C348.80 153.63 362.65 160.00 362.65 160.00 C362.65 160.00 348.80 166.37 344.03 166.37 C339.25 166.37 334.00 162.12 334.00 160.00 Z" fill="#7A6A54" stroke="#0B1A1E" stroke-width="1.80" stroke-linejoin="round"/>
<path d="M384.94 160.00 C384.94 157.88 389.61 153.63 393.85 153.63 C398.10 153.63 410.41 160.00 410.41 160.00 C410.41 160.00 398.10 166.37 393.85 166.37 C389.61 166.37 384.94 162.12 384.94 160.00 Z" fill="#7A6A54" stroke="#0B1A1E" stroke-width="1.80" stroke-linejoin="round"/>
<circle cx="50.65" cy="137.71" r="5.09" fill="#C9A24A" stroke="#0B1A1E" stroke-width="2.00" stroke-linejoin="round"/>
<circle cx="50.65" cy="137.71" r="2.80" fill="#0B1A1E"/>
<circle cx="49.38" cy="136.19" r="1.02" fill="#FFFFFF"/>
<circle cx="61.86" cy="134.37" r="2.55" fill="#0B1A1E" opacity="0.55"/>
<circle cx="50.65" cy="182.29" r="5.09" fill="#C9A24A" stroke="#0B1A1E" stroke-width="2.00" stroke-linejoin="round"/>
<circle cx="50.65" cy="182.29" r="2.80" fill="#0B1A1E"/>
<circle cx="49.38" cy="180.76" r="1.02" fill="#FFFFFF"/>
<circle cx="61.86" cy="185.63" r="2.55" fill="#0B1A1E" opacity="0.55"/>
</svg>