<svg xmlns="http://www.w3.org/2000/svg" viewBox="0 0 512 320" width="512" height="320">
<title>Chicharro</title>
<defs>
<linearGradient id="gBody" x1="0" y1="0" x2="0" y2="1"><stop offset="0" stop-color="#5C6C60"/><stop offset="0.42" stop-color="#CDD2CB"/><stop offset="0.78" stop-color="#F3F3EE"/><stop offset="1" stop-color="#F3F3EE"/></linearGradient>
<pattern id="pScale" width="16.1" height="13.0" patternUnits="userSpaceOnUse"><path d="M4.0 -6.5 A4.0 6.5 0 0 1 4.0 6.5 M4.0 6.5 A4.0 6.5 0 0 1 4.0 19.5 M12.1 0.0 A4.0 6.5 0 0 1 12.1 13.0 " fill="none" stroke="#0B1A1E" stroke-width="1.1"/></pattern>
<clipPath id="cBody"><path d="M383.23 168.90 C383.20 171.86 383.17 168.90 383.05 168.91 C382.93 168.91 382.75 168.92 382.52 168.95 C382.28 168.97 381.98 169.00 381.62 169.04 C381.26 169.08 380.85 169.13 380.37 169.19 C379.90 169.25 379.36 169.33 378.77 169.42 C378.18 169.51 377.53 169.61 376.82 169.73 C376.11 169.84 375.34 169.98 374.52 170.12 C373.70 170.27 372.82 170.43 371.89 170.61 C370.95 170.79 369.96 170.99 368.91 171.20 C367.87 171.41 366.76 171.64 365.61 171.88 C364.46 172.13 363.25 172.39 361.98 172.66 C360.72 172.94 359.41 173.23 358.04 173.54 C356.68 173.84 355.26 174.17 353.79 174.50 C352.33 174.84 350.81 175.19 349.25 175.56 C347.68 175.92 346.07 176.30 344.41 176.69 C342.75 177.09 341.04 177.49 339.29 177.90 C337.54 178.32 335.74 178.75 333.90 179.18 C332.07 179.62 330.18 180.06 328.26 180.52 C326.33 180.97 324.37 181.43 322.36 181.90 C320.36 182.37 318.31 182.84 316.23 183.32 C314.15 183.80 312.03 184.28 309.88 184.76 C307.73 185.25 305.54 185.74 303.32 186.22 C301.09 186.71 298.84 187.20 296.55 187.69 C294.27 188.17 291.95 188.66 289.61 189.14 C287.27 189.62 284.89 190.10 282.49 190.57 C280.10 191.04 277.67 191.51 275.22 191.97 C272.78 192.43 270.30 192.88 267.81 193.33 C265.32 193.77 262.80 194.20 260.27 194.63 C257.74 195.05 255.19 195.46 252.63 195.86 C250.06 196.26 247.48 196.64 244.88 197.02 C242.29 197.39 239.68 197.75 237.06 198.09 C234.44 198.43 231.81 198.76 229.17 199.07 C226.53 199.39 223.89 199.68 221.24 199.96 C218.59 200.24 215.93 200.50 213.27 200.74 C210.61 200.98 207.95 201.20 205.29 201.41 C202.62 201.61 199.96 201.80 197.30 201.97 C194.64 202.13 191.98 202.28 189.33 202.41 C186.68 202.54 184.04 202.65 181.40 202.74 C178.76 202.83 176.13 202.90 173.51 202.95 C170.89 203.01 168.28 203.05 165.69 203.05 C163.09 203.06 160.51 203.06 157.94 203.00 C155.38 202.94 152.83 202.83 150.30 202.70 C147.77 202.57 145.25 202.40 142.76 202.22 C140.27 202.03 137.79 201.81 135.35 201.57 C132.90 201.34 130.47 201.07 128.08 200.80 C125.68 200.52 123.31 200.22 120.96 199.90 C118.62 199.59 116.30 199.25 114.02 198.91 C111.73 198.56 109.48 198.20 107.25 197.83 C105.03 197.45 102.84 197.07 100.69 196.67 C98.54 196.28 96.42 195.88 94.34 195.47 C92.26 195.06 90.21 194.64 88.21 194.22 C86.20 193.80 84.24 193.37 82.31 192.94 C80.39 192.51 78.51 192.08 76.67 191.65 C74.83 191.22 73.03 190.78 71.28 190.35 C69.53 189.92 67.82 189.49 66.16 189.07 C64.50 188.64 62.89 188.22 61.32 187.80 C59.76 187.38 58.24 186.97 56.78 186.57 C55.31 186.16 53.89 185.77 52.53 185.38 C51.16 184.99 49.85 184.61 48.59 184.25 C47.32 183.88 46.12 183.52 44.96 183.18 C43.81 182.83 42.70 182.50 41.66 182.18 C40.61 181.86 39.62 181.55 38.69 181.26 C37.75 180.97 36.87 180.70 36.05 180.44 C35.23 180.18 34.46 179.93 33.75 179.71 C33.04 179.48 32.39 179.27 31.80 179.08 C31.21 178.89 30.67 178.71 30.20 178.56 C29.72 178.40 29.31 178.27 28.95 178.15 C28.59 178.03 28.29 177.93 28.05 177.85 C27.82 177.78 27.64 177.72 27.52 177.68 C27.40 177.64 28.04 178.52 27.34 177.62 C26.64 176.72 24.22 174.50 23.33 172.28 C22.44 170.05 22.00 166.94 22.00 164.27 C22.00 161.60 22.44 158.49 23.33 156.26 C24.22 154.04 26.64 151.83 27.34 150.92 C28.04 150.02 27.40 150.90 27.52 150.84 C27.64 150.79 27.82 150.71 28.05 150.60 C28.29 150.50 28.59 150.36 28.95 150.20 C29.31 150.05 29.72 149.86 30.20 149.65 C30.67 149.44 31.21 149.20 31.80 148.94 C32.39 148.68 33.04 148.40 33.75 148.09 C34.46 147.78 35.23 147.45 36.05 147.10 C36.87 146.75 37.75 146.37 38.69 145.97 C39.62 145.58 40.61 145.16 41.66 144.72 C42.70 144.29 43.81 143.83 44.96 143.36 C46.12 142.89 47.32 142.39 48.59 141.89 C49.85 141.38 51.16 140.86 52.53 140.32 C53.89 139.79 55.31 139.24 56.78 138.68 C58.24 138.12 59.76 137.55 61.32 136.97 C62.89 136.39 64.50 135.79 66.16 135.20 C67.82 134.60 69.53 134.00 71.28 133.39 C73.03 132.78 74.83 132.17 76.67 131.56 C78.51 130.94 80.39 130.33 82.31 129.71 C84.24 129.10 86.20 128.48 88.21 127.88 C90.21 127.27 92.26 126.66 94.34 126.06 C96.42 125.47 98.54 124.87 100.69 124.29 C102.84 123.71 105.03 123.14 107.25 122.58 C109.48 122.03 111.73 121.48 114.02 120.95 C116.30 120.43 118.62 119.91 120.96 119.42 C123.31 118.94 125.68 118.46 128.08 118.02 C130.47 117.58 132.90 117.15 135.35 116.76 C137.79 116.37 140.27 116.01 142.76 115.68 C145.25 115.36 147.77 115.06 150.30 114.82 C152.83 114.58 155.38 114.36 157.94 114.24 C160.51 114.12 163.09 114.10 165.69 114.10 C168.28 114.09 170.89 114.15 173.51 114.21 C176.13 114.26 178.76 114.34 181.40 114.44 C184.04 114.54 186.68 114.66 189.33 114.80 C191.98 114.94 194.64 115.10 197.30 115.28 C199.96 115.46 202.62 115.66 205.29 115.88 C207.95 116.10 210.61 116.35 213.27 116.61 C215.93 116.87 218.59 117.15 221.24 117.45 C223.89 117.75 226.53 118.07 229.17 118.41 C231.81 118.75 234.44 119.10 237.06 119.48 C239.68 119.85 242.29 120.24 244.88 120.64 C247.48 121.04 250.06 121.46 252.63 121.89 C255.19 122.33 257.74 122.77 260.27 123.23 C262.80 123.69 265.32 124.16 267.81 124.64 C270.30 125.12 272.78 125.61 275.22 126.11 C277.67 126.60 280.10 127.11 282.49 127.62 C284.89 128.13 287.27 128.65 289.61 129.17 C291.95 129.69 294.27 130.22 296.55 130.75 C298.84 131.27 301.09 131.80 303.32 132.33 C305.54 132.86 307.73 133.39 309.88 133.91 C312.03 134.44 314.15 134.96 316.23 135.48 C318.31 136.00 320.36 136.51 322.36 137.02 C324.37 137.52 326.33 138.02 328.26 138.51 C330.18 139.01 332.07 139.49 333.90 139.96 C335.74 140.43 337.54 140.90 339.29 141.34 C341.04 141.79 342.75 142.23 344.41 142.66 C346.07 143.08 347.68 143.49 349.25 143.89 C350.81 144.28 352.33 144.66 353.79 145.03 C355.26 145.39 356.68 145.74 358.04 146.08 C359.41 146.41 360.72 146.73 361.98 147.02 C363.25 147.32 364.46 147.60 365.61 147.87 C366.76 148.13 367.87 148.38 368.91 148.61 C369.96 148.84 370.95 149.05 371.89 149.24 C372.82 149.44 373.70 149.61 374.52 149.77 C375.34 149.93 376.11 150.08 376.82 150.20 C377.53 150.33 378.18 150.44 378.77 150.54 C379.36 150.64 379.90 150.72 380.37 150.78 C380.85 150.85 381.26 150.91 381.62 150.95 C381.98 151.00 382.28 151.03 382.52 151.05 C382.75 151.07 382.93 151.09 383.05 151.09 C383.17 151.10 383.20 148.14 383.23 151.10 C383.26 154.07 383.26 165.93 383.23 168.90 Z"/></clipPath>
</defs>
<path d="M370.78 151.10 C380.86 142.91 411.41 132.17 431.28 119.71 C451.15 107.26 490.00 76.37 490.00 76.37 C490.00 76.37 471.85 125.60 461.17 139.54 C450.50 153.48 425.94 160.00 425.94 160.00 C425.94 160.00 450.50 166.52 461.17 180.46 C471.85 194.40 490.00 243.63 490.00 243.63 C490.00 243.63 451.15 212.74 431.28 200.29 C411.41 187.83 380.86 177.09 370.78 168.90 C360.69 160.70 360.69 159.30 370.78 151.10 Z" fill="#C9C6A8" stroke="#0B1A1E" stroke-width="2.40" stroke-linejoin="round"/>
<path d="M374.33 160.00 C382.88 153.96 417.04 129.78 425.58 123.74" fill="none" stroke="#0B1A1E" stroke-width="1.00" stroke-linejoin="round" opacity="0.25"/>
<path d="M374.33 160.00 C391.68 147.45 461.08 97.27 478.43 84.73" fill="none" stroke="#0B1A1E" stroke-width="1.00" stroke-linejoin="round" opacity="0.25"/>
<path d="M374.33 160.00 C387.36 156.93 439.46 144.65 452.49 141.58" fill="none" stroke="#0B1A1E" stroke-width="1.00" stroke-linejoin="round" opacity="0.25"/>
<path d="M374.33 160.00 C382.08 160.00 413.04 160.00 420.78 160.00" fill="none" stroke="#0B1A1E" stroke-width="1.00" stroke-linejoin="round" opacity="0.25"/>
<path d="M374.33 160.00 C387.36 163.07 439.46 175.35 452.49 178.42" fill="none" stroke="#0B1A1E" stroke-width="1.00" stroke-linejoin="round" opacity="0.25"/>
<path d="M374.33 160.00 C391.68 172.55 461.08 222.73 478.43 235.27" fill="none" stroke="#0B1A1E" stroke-width="1.00" stroke-linejoin="round" opacity="0.25"/>
<path d="M374.33 160.00 C382.88 166.04 417.04 190.22 425.58 196.26" fill="none" stroke="#0B1A1E" stroke-width="1.00" stroke-linejoin="round" opacity="0.25"/>
<path d="M134.11 116.96 C135.57 111.15 142.89 89.21 142.89 89.21 C142.89 89.21 143.23 98.29 144.48 97.44 C145.73 96.58 150.40 84.09 150.40 84.09 C150.40 84.09 150.65 93.71 151.73 93.75 C152.80 93.80 156.87 84.36 156.87 84.36 C156.87 84.36 157.19 93.68 158.26 93.80 C159.33 93.92 163.30 85.08 163.30 85.08 C163.30 85.08 163.70 94.07 164.77 94.27 C165.83 94.48 169.69 86.31 169.69 86.31 C169.69 86.31 170.19 94.95 171.25 95.22 C172.31 95.49 176.05 87.93 176.05 87.93 C176.05 87.93 176.66 96.08 177.71 96.39 C178.77 96.70 182.39 89.77 182.39 89.77 C182.39 89.77 183.10 97.39 184.15 97.73 C185.21 98.07 188.70 91.82 188.70 91.82 C188.70 91.82 190.78 95.43 190.58 99.24 C190.38 103.06 188.01 110.94 187.49 114.70 C186.98 118.46 188.97 120.69 187.49 121.82 C186.01 122.95 181.56 121.55 178.59 121.46 C175.63 121.37 172.66 121.29 169.70 121.26 C166.73 121.22 163.76 121.15 160.80 121.24 C157.83 121.33 154.87 121.54 151.90 121.79 C148.94 122.05 145.97 122.39 143.00 122.77 C140.04 123.15 135.59 125.05 134.11 124.08 C132.62 123.11 132.64 122.78 134.11 116.96 Z" fill="#C9C6A8" stroke="#0B1A1E" stroke-width="2.40" stroke-linejoin="round"/>
<path d="M143.00 113.87 C143.86 110.10 147.30 95.02 148.16 91.25" fill="none" stroke="#0B1A1E" stroke-width="1.00" stroke-linejoin="round" opacity="0.28"/>
<path d="M151.90 112.90 C152.76 109.12 156.20 94.00 157.06 90.22" fill="none" stroke="#0B1A1E" stroke-width="1.00" stroke-linejoin="round" opacity="0.28"/>
<path d="M160.80 112.34 C161.43 109.66 163.94 98.94 164.57 96.26" fill="none" stroke="#0B1A1E" stroke-width="1.00" stroke-linejoin="round" opacity="0.28"/>
<path d="M169.70 112.36 C170.45 109.09 173.46 96.01 174.21 92.74" fill="none" stroke="#0B1A1E" stroke-width="1.00" stroke-linejoin="round" opacity="0.28"/>
<path d="M178.59 112.56 C179.29 109.57 182.06 97.61 182.76 94.62" fill="none" stroke="#0B1A1E" stroke-width="1.00" stroke-linejoin="round" opacity="0.28"/>
<path d="M198.17 115.34 C200.02 111.73 202.07 102.48 209.31 100.84 C216.54 99.20 227.24 102.77 241.59 105.48 C255.93 108.19 280.87 113.43 295.40 117.08 C309.93 120.74 322.45 123.63 328.78 127.43 C335.12 131.22 332.64 136.58 333.41 139.83 C334.18 143.09 337.16 146.71 333.41 146.95 C329.65 147.19 318.38 143.10 310.87 141.27 C303.35 139.45 295.84 137.66 288.33 136.01 C280.81 134.36 273.30 132.79 265.79 131.37 C258.27 129.95 250.76 128.65 243.25 127.51 C235.73 126.36 228.22 125.35 220.71 124.51 C213.19 123.67 201.92 123.98 198.17 122.45 C194.41 120.93 196.31 118.94 198.17 115.34 Z" fill="#C9C6A8" stroke="#0B1A1E" stroke-width="2.40" stroke-linejoin="round"/>
<path d="M206.62 114.22 C207.10 112.24 209.01 104.36 209.49 102.39" fill="none" stroke="#0B1A1E" stroke-width="1.00" stroke-linejoin="round" opacity="0.28"/>
<path d="M215.07 115.01 C215.54 113.07 217.43 105.33 217.90 103.39" fill="none" stroke="#0B1A1E" stroke-width="1.00" stroke-linejoin="round" opacity="0.28"/>
<path d="M223.52 115.94 C223.99 114.04 225.84 106.43 226.31 104.53" fill="none" stroke="#0B1A1E" stroke-width="1.00" stroke-linejoin="round" opacity="0.28"/>
<path d="M231.98 117.00 C232.43 115.13 234.26 107.66 234.72 105.80" fill="none" stroke="#0B1A1E" stroke-width="1.00" stroke-linejoin="round" opacity="0.28"/>
<path d="M240.43 118.18 C240.88 116.35 242.68 109.02 243.13 107.19" fill="none" stroke="#0B1A1E" stroke-width="1.00" stroke-linejoin="round" opacity="0.28"/>
<path d="M248.88 119.50 C249.32 117.70 251.09 110.50 251.54 108.70" fill="none" stroke="#0B1A1E" stroke-width="1.00" stroke-linejoin="round" opacity="0.28"/>
<path d="M257.33 120.93 C257.77 119.16 259.51 112.10 259.95 110.33" fill="none" stroke="#0B1A1E" stroke-width="1.00" stroke-linejoin="round" opacity="0.28"/>
<path d="M265.79 122.47 C266.22 120.74 267.93 113.81 268.36 112.08" fill="none" stroke="#0B1A1E" stroke-width="1.00" stroke-linejoin="round" opacity="0.28"/>
<path d="M274.24 124.13 C274.66 122.43 276.35 115.63 276.77 113.94" fill="none" stroke="#0B1A1E" stroke-width="1.00" stroke-linejoin="round" opacity="0.28"/>
<path d="M282.69 125.88 C283.11 124.22 284.76 117.56 285.18 115.89" fill="none" stroke="#0B1A1E" stroke-width="1.00" stroke-linejoin="round" opacity="0.28"/>
<path d="M291.14 127.74 C291.55 126.10 293.18 119.58 293.59 117.94" fill="none" stroke="#0B1A1E" stroke-width="1.00" stroke-linejoin="round" opacity="0.28"/>
<path d="M299.60 129.67 C299.99 128.11 301.56 121.87 301.95 120.31" fill="none" stroke="#0B1A1E" stroke-width="1.00" stroke-linejoin="round" opacity="0.28"/>
<path d="M308.05 131.69 C308.42 130.21 309.93 124.28 310.30 122.80" fill="none" stroke="#0B1A1E" stroke-width="1.00" stroke-linejoin="round" opacity="0.28"/>
<path d="M316.50 133.77 C316.86 132.37 318.29 126.76 318.65 125.36" fill="none" stroke="#0B1A1E" stroke-width="1.00" stroke-linejoin="round" opacity="0.28"/>
<path d="M324.95 135.89 C325.30 134.57 326.66 129.29 327.00 127.97" fill="none" stroke="#0B1A1E" stroke-width="1.00" stroke-linejoin="round" opacity="0.28"/>
<path d="M226.64 199.37 C228.21 202.95 230.26 212.10 236.07 213.73 C241.88 215.36 250.20 211.50 261.52 209.13 C272.83 206.75 292.49 202.44 303.94 199.46 C315.39 196.48 325.29 194.60 330.20 191.24 C335.12 187.88 332.87 182.48 333.41 179.30 C333.94 176.12 336.37 172.67 333.41 172.18 C330.44 171.69 321.54 174.99 315.61 176.34 C309.68 177.70 303.75 179.03 297.82 180.30 C291.89 181.57 285.95 182.79 280.02 183.94 C274.09 185.08 268.16 186.17 262.23 187.18 C256.30 188.18 250.37 189.12 244.43 189.96 C238.50 190.81 229.60 190.68 226.64 192.25 C223.67 193.82 225.07 195.79 226.64 199.37 Z" fill="#C9C6A8" stroke="#0B1A1E" stroke-width="2.40" stroke-linejoin="round"/>
<path d="M234.85 200.16 C235.33 202.12 237.24 209.97 237.71 211.93" fill="none" stroke="#0B1A1E" stroke-width="1.00" stroke-linejoin="round" opacity="0.28"/>
<path d="M243.06 199.05 C243.53 200.97 245.40 208.66 245.87 210.58" fill="none" stroke="#0B1A1E" stroke-width="1.00" stroke-linejoin="round" opacity="0.28"/>
<path d="M251.28 197.85 C251.74 199.72 253.57 207.23 254.03 209.11" fill="none" stroke="#0B1A1E" stroke-width="1.00" stroke-linejoin="round" opacity="0.28"/>
<path d="M259.49 196.53 C259.94 198.37 261.74 205.71 262.19 207.54" fill="none" stroke="#0B1A1E" stroke-width="1.00" stroke-linejoin="round" opacity="0.28"/>
<path d="M267.70 195.12 C268.14 196.92 269.91 204.09 270.35 205.89" fill="none" stroke="#0B1A1E" stroke-width="1.00" stroke-linejoin="round" opacity="0.28"/>
<path d="M275.92 193.62 C276.35 195.37 278.08 202.38 278.51 204.14" fill="none" stroke="#0B1A1E" stroke-width="1.00" stroke-linejoin="round" opacity="0.28"/>
<path d="M284.13 192.03 C284.55 193.74 286.25 200.59 286.67 202.30" fill="none" stroke="#0B1A1E" stroke-width="1.00" stroke-linejoin="round" opacity="0.28"/>
<path d="M292.34 190.35 C292.76 192.02 294.42 198.71 294.83 200.38" fill="none" stroke="#0B1A1E" stroke-width="1.00" stroke-linejoin="round" opacity="0.28"/>
<path d="M300.56 188.61 C300.96 190.24 302.59 196.75 302.99 198.38" fill="none" stroke="#0B1A1E" stroke-width="1.00" stroke-linejoin="round" opacity="0.28"/>
<path d="M308.77 186.79 C309.16 188.33 310.70 194.48 311.09 196.01" fill="none" stroke="#0B1A1E" stroke-width="1.00" stroke-linejoin="round" opacity="0.28"/>
<path d="M316.98 184.93 C317.35 186.36 318.81 192.12 319.18 193.55" fill="none" stroke="#0B1A1E" stroke-width="1.00" stroke-linejoin="round" opacity="0.28"/>
<path d="M325.19 183.02 C325.54 184.36 326.92 189.71 327.27 191.05" fill="none" stroke="#0B1A1E" stroke-width="1.00" stroke-linejoin="round" opacity="0.28"/>
<path d="M152.72 194.19 C155.63 194.94 159.80 200.89 161.45 204.80 C163.10 208.72 162.63 217.66 162.63 217.66 C162.63 217.66 153.79 213.72 150.68 210.83 C147.57 207.94 143.63 203.09 143.97 200.32 C144.31 197.54 149.80 193.44 152.72 194.19 Z" fill="#C9C6A8" stroke="#0B1A1E" stroke-width="2.40" stroke-linejoin="round"/>
<path d="M383.23 168.90 C383.20 171.86 383.17 168.90 383.05 168.91 C382.93 168.91 382.75 168.92 382.52 168.95 C382.28 168.97 381.98 169.00 381.62 169.04 C381.26 169.08 380.85 169.13 380.37 169.19 C379.90 169.25 379.36 169.33 378.77 169.42 C378.18 169.51 377.53 169.61 376.82 169.73 C376.11 169.84 375.34 169.98 374.52 170.12 C373.70 170.27 372.82 170.43 371.89 170.61 C370.95 170.79 369.96 170.99 368.91 171.20 C367.87 171.41 366.76 171.64 365.61 171.88 C364.46 172.13 363.25 172.39 361.98 172.66 C360.72 172.94 359.41 173.23 358.04 173.54 C356.68 173.84 355.26 174.17 353.79 174.50 C352.33 174.84 350.81 175.19 349.25 175.56 C347.68 175.92 346.07 176.30 344.41 176.69 C342.75 177.09 341.04 177.49 339.29 177.90 C337.54 178.32 335.74 178.75 333.90 179.18 C332.07 179.62 330.18 180.06 328.26 180.52 C326.33 180.97 324.37 181.43 322.36 181.90 C320.36 182.37 318.31 182.84 316.23 183.32 C314.15 183.80 312.03 184.28 309.88 184.76 C307.73 185.25 305.54 185.74 303.32 186.22 C301.09 186.71 298.84 187.20 296.55 187.69 C294.27 188.17 291.95 188.66 289.61 189.14 C287.27 189.62 284.89 190.10 282.49 190.57 C280.10 191.04 277.67 191.51 275.22 191.97 C272.78 192.43 270.30 192.88 267.81 193.33 C265.32 193.77 262.80 194.20 260.27 194.63 C257.74 195.05 255.19 195.46 252.63 195.86 C250.06 196.26 247.48 196.64 244.88 197.02 C242.29 197.39 239.68 197.75 237.06 198.09 C234.44 198.43 231.81 198.76 229.17 199.07 C226.53 199.39 223.89 199.68 221.24 199.96 C218.59 200.24 215.93 200.50 213.27 200.74 C210.61 200.98 207.95 201.20 205.29 201.41 C202.62 201.61 199.96 201.80 197.30 201.97 C194.64 202.13 191.98 202.28 189.33 202.41 C186.68 202.54 184.04 202.65 181.40 202.74 C178.76 202.83 176.13 202.90 173.51 202.95 C170.89 203.01 168.28 203.05 165.69 203.05 C163.09 203.06 160.51 203.06 157.94 203.00 C155.38 202.94 152.83 202.83 150.30 202.70 C147.77 202.57 145.25 202.40 142.76 202.22 C140.27 202.03 137.79 201.81 135.35 201.57 C132.90 201.34 130.47 201.07 128.08 200.80 C125.68 200.52 123.31 200.22 120.96 199.90 C118.62 199.59 116.30 199.25 114.02 198.91 C111.73 198.56 109.48 198.20 107.25 197.83 C105.03 197.45 102.84 197.07 100.69 196.67 C98.54 196.28 96.42 195.88 94.34 195.47 C92.26 195.06 90.21 194.64 88.21 194.22 C86.20 193.80 84.24 193.37 82.31 192.94 C80.39 192.51 78.51 192.08 76.67 191.65 C74.83 191.22 73.03 190.78 71.28 190.35 C69.53 189.92 67.82 189.49 66.16 189.07 C64.50 188.64 62.89 188.22 61.32 187.80 C59.76 187.38 58.24 186.97 56.78 186.57 C55.31 186.16 53.89 185.77 52.53 185.38 C51.16 184.99 49.85 184.61 48.59 184.25 C47.32 183.88 46.12 183.52 44.96 183.18 C43.81 182.83 42.70 182.50 41.66 182.18 C40.61 181.86 39.62 181.55 38.69 181.26 C37.75 180.97 36.87 180.70 36.05 180.44 C35.23 180.18 34.46 179.93 33.75 179.71 C33.04 179.48 32.39 179.27 31.80 179.08 C31.21 178.89 30.67 178.71 30.20 178.56 C29.72 178.40 29.31 178.27 28.95 178.15 C28.59 178.03 28.29 177.93 28.05 177.85 C27.82 177.78 27.64 177.72 27.52 177.68 C27.40 177.64 28.04 178.52 27.34 177.62 C26.64 176.72 24.22 174.50 23.33 172.28 C22.44 170.05 22.00 166.94 22.00 164.27 C22.00 161.60 22.44 158.49 23.33 156.26 C24.22 154.04 26.64 151.83 27.34 150.92 C28.04 150.02 27.40 150.90 27.52 150.84 C27.64 150.79 27.82 150.71 28.05 150.60 C28.29 150.50 28.59 150.36 28.95 150.20 C29.31 150.05 29.72 149.86 30.20 149.65 C30.67 149.44 31.21 149.20 31.80 148.94 C32.39 148.68 33.04 148.40 33.75 148.09 C34.46 147.78 35.23 147.45 36.05 147.10 C36.87 146.75 37.75 146.37 38.69 145.97 C39.62 145.58 40.61 145.16 41.66 144.72 C42.70 144.29 43.81 143.83 44.96 143.36 C46.12 142.89 47.32 142.39 48.59 141.89 C49.85 141.38 51.16 140.86 52.53 140.32 C53.89 139.79 55.31 139.24 56.78 138.68 C58.24 138.12 59.76 137.55 61.32 136.97 C62.89 136.39 64.50 135.79 66.16 135.20 C67.82 134.60 69.53 134.00 71.28 133.39 C73.03 132.78 74.83 132.17 76.67 131.56 C78.51 130.94 80.39 130.33 82.31 129.71 C84.24 129.10 86.20 128.48 88.21 127.88 C90.21 127.27 92.26 126.66 94.34 126.06 C96.42 125.47 98.54 124.87 100.69 124.29 C102.84 123.71 105.03 123.14 107.25 122.58 C109.48 122.03 111.73 121.48 114.02 120.95 C116.30 120.43 118.62 119.91 120.96 119.42 C123.31 118.94 125.68 118.46 128.08 118.02 C130.47 117.58 132.90 117.15 135.35 116.76 C137.79 116.37 140.27 116.01 142.76 115.68 C145.25 115.36 147.77 115.06 150.30 114.82 C152.83 114.58 155.38 114.36 157.94 114.24 C160.51 114.12 163.09 114.10 165.69 114.10 C168.28 114.09 170.89 114.15 173.51 114.21 C176.13 114.26 178.76 114.34 181.40 114.44 C184.04 114.54 186.68 114.66 189.33 114.80 C191.98 114.94 194.64 115.10 197.30 115.28 C199.96 115.46 202.62 115.66 205.29 115.88 C207.95 116.10 210.61 116.35 213.27 116.61 C215.93 116.87 218.59 117.15 221.24 117.45 C223.89 117.75 226.53 118.07 229.17 118.41 C231.81 118.75 234.44 119.10 237.06 119.48 C239.68 119.85 242.29 120.24 244.88 120.64 C247.48 121.04 250.06 121.46 252.63 121.89 C255.19 122.33 257.74 122.77 260.27 123.23 C262.80 123.69 265.32 124.16 267.81 124.64 C270.30 125.12 272.78 125.61 275.22 126.11 C277.67 126.60 280.10 127.11 282.49 127.62 C284.89 128.13 287.27 128.65 289.61 129.17 C291.95 129.69 294.27 130.22 296.55 130.75 C298.84 131.27 301.09 131.80 303.32 132.33 C305.54 132.86 307.73 133.39 309.88 133.91 C312.03 134.44 314.15 134.96 316.23 135.48 C318.31 136.00 320.36 136.51 322.36 137.02 C324.37 137.52 326.33 138.02 328.26 138.51 C330.18 139.01 332.07 139.49 333.90 139.96 C335.74 140.43 337.54 140.90 339.29 141.34 C341.04 141.79 342.75 142.23 344.41 142.66 C346.07 143.08 347.68 143.49 349.25 143.89 C350.81 144.28 352.33 144.66 353.79 145.03 C355.26 145.39 356.68 145.74 358.04 146.08 C359.41 146.41 360.72 146.73 361.98 147.02 C363.25 147.32 364.46 147.60 365.61 147.87 C366.76 148.13 367.87 148.38 368.91 148.61 C369.96 148.84 370.95 149.05 371.89 149.24 C372.82 149.44 373.70 149.61 374.52 149.77 C375.34 149.93 376.11 150.08 376.82 150.20 C377.53 150.33 378.18 150.44 378.77 150.54 C379.36 150.64 379.90 150.72 380.37 150.78 C380.85 150.85 381.26 150.91 381.62 150.95 C381.98 151.00 382.28 151.03 382.52 151.05 C382.75 151.07 382.93 151.09 383.05 151.09 C383.17 151.10 383.20 148.14 383.23 151.10 C383.26 154.07 383.26 165.93 383.23 168.90 Z" fill="url(#gBody)"/>
<g clip-path="url(#cBody)">
<path d="M104.52 141.90 C105.34 141.17 106.33 140.05 107.25 140.03 C108.17 140.02 109.23 141.11 110.04 141.80 C110.84 142.49 111.88 143.27 112.07 144.16 C112.26 145.05 111.64 146.23 111.17 147.15 C110.69 148.07 110.12 149.22 109.23 149.68 C108.35 150.13 106.85 150.21 105.85 149.89 C104.85 149.56 103.83 148.64 103.24 147.72 C102.65 146.81 102.10 145.37 102.31 144.40 C102.52 143.43 103.69 142.62 104.52 141.90 Z" fill="#1E2622" opacity="0.85"/>
<path d="M62.93 145.56 C65.38 144.70 72.73 142.04 77.64 140.41 C82.54 138.79 87.44 137.26 92.35 135.82 C97.25 134.39 102.16 133.05 107.06 131.81 C111.96 130.58 116.87 129.45 121.77 128.44 C126.67 127.43 131.58 126.52 136.48 125.77 C141.38 125.01 146.29 124.34 151.19 123.92 C156.09 123.51 161.00 123.34 165.90 123.28 C170.80 123.23 175.71 123.42 180.61 123.59 C185.51 123.77 190.42 124.01 195.32 124.33 C200.22 124.64 205.13 125.03 210.03 125.48 C214.93 125.93 219.84 126.46 224.74 127.04 C229.64 127.63 234.55 128.29 239.45 129.00 C244.35 129.72 249.26 130.50 254.16 131.34 C259.06 132.17 263.97 133.08 268.87 134.03 C273.77 134.98 281.13 136.53 283.58 137.04" fill="none" stroke="#FFFFFF" stroke-width="5.00" stroke-linejoin="round" stroke-linecap="round" opacity="0.22"/>
<path d="M55.81 183.63 C58.97 184.45 68.46 187.03 74.79 188.53 C81.12 190.04 87.44 191.44 93.77 192.69 C100.10 193.94 106.43 195.07 112.75 196.04 C119.08 197.02 125.41 197.87 131.73 198.54 C138.06 199.20 144.39 199.75 150.71 200.05 C157.04 200.36 163.37 200.39 169.70 200.35 C176.02 200.30 182.35 200.07 188.68 199.77 C195.00 199.47 201.33 199.06 207.66 198.55 C213.98 198.04 220.31 197.42 226.64 196.70 C232.97 195.98 239.29 195.15 245.62 194.24 C251.95 193.33 258.27 192.31 264.60 191.22 C270.93 190.13 277.25 188.94 283.58 187.69 C289.91 186.44 296.24 185.10 302.56 183.72 C308.89 182.34 315.22 180.88 321.54 179.42 C327.87 177.96 337.36 175.69 340.52 174.94" fill="none" stroke="#0B1A1E" stroke-width="7.00" stroke-linejoin="round" stroke-linecap="round" opacity="0.10"/>
</g>
<path d="M383.05 168.91 C382.96 168.91 382.75 168.92 382.52 168.95 C382.28 168.97 381.98 169.00 381.62 169.04 C381.26 169.08 380.85 169.13 380.37 169.19 C379.90 169.25 379.36 169.33 378.77 169.42 C378.18 169.51 377.53 169.61 376.82 169.73 C376.11 169.84 375.34 169.98 374.52 170.12 C373.70 170.27 372.82 170.43 371.89 170.61 C370.95 170.79 369.96 170.99 368.91 171.20 C367.87 171.41 366.76 171.64 365.61 171.88 C364.46 172.13 363.25 172.39 361.98 172.66 C360.72 172.94 359.41 173.23 358.04 173.54 C356.68 173.84 355.26 174.17 353.79 174.50 C352.33 174.84 350.81 175.19 349.25 175.56 C347.68 175.92 346.07 176.30 344.41 176.69 C342.75 177.09 341.04 177.49 339.29 177.90 C337.54 178.32 335.74 178.75 333.90 179.18 C332.07 179.62 330.18 180.06 328.26 180.52 C326.33 180.97 324.37 181.43 322.36 181.90 C320.36 182.37 318.31 182.84 316.23 183.32 C314.15 183.80 312.03 184.28 309.88 184.76 C307.73 185.25 305.54 185.74 303.32 186.22 C301.09 186.71 298.84 187.20 296.55 187.69 C294.27 188.17 291.95 188.66 289.61 189.14 C287.27 189.62 284.89 190.10 282.49 190.57 C280.10 191.04 277.67 191.51 275.22 191.97 C272.78 192.43 270.30 192.88 267.81 193.33 C265.32 193.77 262.80 194.20 260.27 194.63 C257.74 195.05 255.19 195.46 252.63 195.86 C250.06 196.26 247.48 196.64 244.88 197.02 C242.29 197.39 239.68 197.75 237.06 198.09 C234.44 198.43 231.81 198.76 229.17 199.07 C226.53 199.39 223.89 199.68 221.24 199.96 C218.59 200.24 215.93 200.50 213.27 200.74 C210.61 200.98 207.95 201.20 205.29 201.41 C202.62 201.61 199.96 201.80 197.30 201.97 C194.64 202.13 191.98 202.28 189.33 202.41 C186.68 202.54 184.04 202.65 181.40 202.74 C178.76 202.83 176.13 202.90 173.51 202.95 C170.89 203.01 168.28 203.05 165.69 203.05 C163.09 203.06 160.51 203.06 157.94 203.00 C155.38 202.94 152.83 202.83 150.30 202.70 C147.77 202.57 145.25 202.40 142.76 202.22 C140.27 202.03 137.79 201.81 135.35 201.57 C132.90 201.34 130.47 201.07 128.08 200.80 C125.68 200.52 123.31 200.22 120.96 199.90 C118.62 199.59 116.30 199.25 114.02 198.91 C111.73 198.56 109.48 198.20 107.25 197.83 C105.03 197.45 102.84 197.07 100.69 196.67 C98.54 196.28 96.42 195.88 94.34 195.47 C92.26 195.06 90.21 194.64 88.21 194.22 C86.20 193.80 84.24 193.37 82.31 192.94 C80.39 192.51 78.51 192.08 76.67 191.65 C74.83 191.22 73.03 190.78 71.28 190.35 C69.53 189.92 67.82 189.49 66.16 189.07 C64.50 188.64 62.89 188.22 61.32 187.80 C59.76 187.38 58.24 186.97 56.78 186.57 C55.31 186.16 53.89 185.77 52.53 185.38 C51.16 184.99 49.85 184.61 48.59 184.25 C47.32 183.88 46.12 183.52 44.96 183.18 C43.81 182.83 42.70 182.50 41.66 182.18 C40.61 181.86 39.62 181.55 38.69 181.26 C37.75 180.97 36.87 180.70 36.05 180.44 C35.23 180.18 34.46 179.93 33.75 179.71 C33.04 179.48 32.39 179.27 31.80 179.08 C31.21 178.89 30.67 178.71 30.20 178.56 C29.72 178.40 29.31 178.27 28.95 178.15 C28.59 178.03 28.29 177.93 28.05 177.85 C27.82 177.78 27.64 177.72 27.52 177.68 C27.40 177.64 28.04 178.52 27.34 177.62 C26.64 176.72 24.22 174.50 23.33 172.28 C22.44 170.05 22.00 166.94 22.00 164.27 C22.00 161.60 22.44 158.49 23.33 156.26 C24.22 154.04 26.64 151.83 27.34 150.92 C28.04 150.02 27.40 150.90 27.52 150.84 C27.64 150.79 27.82 150.71 28.05 150.60 C28.29 150.50 28.59 150.36 28.95 150.20 C29.31 150.05 29.72 149.86 30.20 149.65 C30.67 149.44 31.21 149.20 31.80 148.94 C32.39 148.68 33.04 148.40 33.75 148.09 C34.46 147.78 35.23 147.45 36.05 147.10 C36.87 146.75 37.75 146.37 38.69 145.97 C39.62 145.58 40.61 145.16 41.66 144.72 C42.70 144.29 43.81 143.83 44.96 143.36 C46.12 142.89 47.32 142.39 48.59 141.89 C49.85 141.38 51.16 140.86 52.53 140.32 C53.89 139.79 55.31 139.24 56.78 138.68 C58.24 138.12 59.76 137.55 61.32 136.97 C62.89 136.39 64.50 135.79 66.16 135.20 C67.82 134.60 69.53 134.00 71.28 133.39 C73.03 132.78 74.83 132.17 76.67 131.56 C78.51 130.94 80.39 130.33 82.31 129.71 C84.24 129.10 86.20 128.48 88.21 127.88 C90.21 127.27 92.26 126.66 94.34 126.06 C96.42 125.47 98.54 124.87 100.69 124.29 C102.84 123.71 105.03 123.14 107.25 122.58 C109.48 122.03 111.73 121.48 114.02 120.95 C116.30 120.43 118.62 119.91 120.96 119.42 C123.31 118.94 125.68 118.46 128.08 118.02 C130.47 117.58 132.90 117.15 135.35 116.76 C137.79 116.37 140.27 116.01 142.76 115.68 C145.25 115.36 147.77 115.06 150.30 114.82 C152.83 114.58 155.38 114.36 157.94 114.24 C160.51 114.12 163.09 114.10 165.69 114.10 C168.28 114.09 170.89 114.15 173.51 114.21 C176.13 114.26 178.76 114.34 181.40 114.44 C184.04 114.54 186.68 114.66 189.33 114.80 C191.98 114.94 194.64 115.10 197.30 115.28 C199.96 115.46 202.62 115.66 205.29 115.88 C207.95 116.10 210.61 116.35 213.27 116.61 C215.93 116.87 218.59 117.15 221.24 117.45 C223.89 117.75 226.53 118.07 229.17 118.41 C231.81 118.75 234.44 119.10 237.06 119.48 C239.68 119.85 242.29 120.24 244.88 120.64 C247.48 121.04 250.06 121.46 252.63 121.89 C255.19 122.33 257.74 122.77 260.27 123.23 C262.80 123.69 265.32 124.16 267.81 124.64 C270.30 125.12 272.78 125.61 275.22 126.11 C277.67 126.60 280.10 127.11 282.49 127.62 C284.89 128.13 287.27 128.65 289.61 129.17 C291.95 129.69 294.27 130.22 296.55 130.75 C298.84 131.27 301.09 131.80 303.32 132.33 C305.54 132.86 307.73 133.39 309.88 133.91 C312.03 134.44 314.15 134.96 316.23 135.48 C318.31 136.00 320.36 136.51 322.36 137.02 C324.37 137.52 326.33 138.02 328.26 138.51 C330.18 139.01 332.07 139.49 333.90 139.96 C335.74 140.43 337.54 140.90 339.29 141.34 C341.04 141.79 342.75 142.23 344.41 142.66 C346.07 143.08 347.68 143.49 349.25 143.89 C350.81 144.28 352.33 144.66 353.79 145.03 C355.26 145.39 356.68 145.74 358.04 146.08 C359.41 146.41 360.72 146.73 361.98 147.02 C363.25 147.32 364.46 147.60 365.61 147.87 C366.76 148.13 367.87 148.38 368.91 148.61 C369.96 148.84 370.95 149.05 371.89 149.24 C372.82 149.44 373.70 149.61 374.52 149.77 C375.34 149.93 376.11 150.08 376.82 150.20 C377.53 150.33 378.18 150.44 378.77 150.54 C379.36 150.64 379.90 150.72 380.37 150.78 C380.85 150.85 381.26 150.91 381.62 150.95 C381.98 151.00 382.28 151.03 382.52 151.05 C382.75 151.07 382.96 151.09 383.05 151.09" fill="none" stroke="#0B1A1E" stroke-width="3.00" stroke-linejoin="round" stroke-linecap="round"/>
<path d="M123.43 151.44 C125.71 151.30 132.55 150.84 137.10 150.59 C141.66 150.34 146.22 150.11 150.78 149.96 C155.34 149.81 159.89 149.72 164.45 149.68 C169.01 149.64 173.57 149.70 178.12 149.73 C182.68 149.77 187.24 149.81 191.80 149.87 C196.36 149.93 200.91 150.01 205.47 150.10 C210.03 150.18 214.59 150.29 219.15 150.40 C223.70 150.52 228.26 150.65 232.82 150.79 C237.38 150.93 241.94 151.08 246.49 151.25 C251.05 151.42 255.61 151.59 260.17 151.78 C264.73 151.97 269.28 152.18 273.84 152.39 C278.40 152.60 282.96 152.82 287.52 153.05 C292.07 153.28 296.63 153.53 301.19 153.77 C305.75 154.02 310.30 154.28 314.86 154.54 C319.42 154.80 323.98 155.06 328.54 155.33 C333.09 155.60 337.65 155.87 342.21 156.14 C346.77 156.41 351.33 156.68 355.88 156.94 C360.44 157.19 365.00 157.46 369.56 157.68 C374.12 157.89 380.95 158.13 383.23 158.22" fill="none" stroke="#0B1A1E" stroke-width="1.40" stroke-linejoin="round" stroke-linecap="round" opacity="0.30"/>
<path d="M100.30 128.99 C102.61 133.13 112.69 145.78 114.18 153.78 C115.66 161.79 112.40 170.18 109.19 177.02 C105.99 183.86 97.33 191.87 94.96 194.84" fill="none" stroke="#0B1A1E" stroke-width="2.00" stroke-linejoin="round" stroke-linecap="round" opacity="0.55"/>
<path d="M112.75 151.96 C112.75 151.96 116.31 149.11 116.31 149.11 C116.31 149.11 119.87 151.96 119.87 151.96 C119.87 151.96 116.31 154.81 116.31 154.81 C116.31 154.81 112.75 151.96 112.75 151.96 Z" fill="#E6E8E0" stroke="#0B1A1E" stroke-width="1.40" stroke-linejoin="round"/>
<path d="M124.10 151.16 C124.10 151.16 127.61 148.35 127.61 148.35 C127.61 148.35 131.11 151.16 131.11 151.16 C131.11 151.16 127.61 153.97 127.61 153.97 C127.61 153.97 124.10 151.16 124.10 151.16 Z" fill="#E6E8E0" stroke="#0B1A1E" stroke-width="1.40" stroke-linejoin="round"/>
<path d="M135.45 150.49 C135.45 150.49 138.90 147.73 138.90 147.73 C138.90 147.73 142.36 150.49 142.36 150.49 C142.36 150.49 138.90 153.26 138.90 153.26 C138.90 153.26 135.45 150.49 135.45 150.49 Z" fill="#E6E8E0" stroke="#0B1A1E" stroke-width="1.40" stroke-linejoin="round"/>
<path d="M146.80 149.98 C146.80 149.98 150.20 147.26 150.20 147.26 C150.20 147.26 153.60 149.98 153.60 149.98 C153.60 149.98 150.20 152.70 150.20 152.70 C150.20 152.70 146.80 149.98 146.80 149.98 Z" fill="#E6E8E0" stroke="#0B1A1E" stroke-width="1.40" stroke-linejoin="round"/>
<path d="M158.14 149.69 C158.14 149.69 161.49 147.00 161.49 147.00 C161.49 147.00 164.85 149.69 164.85 149.69 C164.85 149.69 161.49 152.37 161.49 152.37 C161.49 152.37 158.14 149.69 158.14 149.69 Z" fill="#E6E8E0" stroke="#0B1A1E" stroke-width="1.40" stroke-linejoin="round"/>
<path d="M169.49 149.70 C169.49 149.70 172.79 147.06 172.79 147.06 C172.79 147.06 176.09 149.70 176.09 149.70 C176.09 149.70 172.79 152.34 172.79 152.34 C172.79 152.34 169.49 149.70 169.49 149.70 Z" fill="#E6E8E0" stroke="#0B1A1E" stroke-width="1.40" stroke-linejoin="round"/>
<path d="M180.84 149.78 C180.84 149.78 184.09 147.19 184.09 147.19 C184.09 147.19 187.33 149.78 187.33 149.78 C187.33 149.78 184.09 152.38 184.09 152.38 C184.09 152.38 180.84 149.78 180.84 149.78 Z" fill="#E6E8E0" stroke="#0B1A1E" stroke-width="1.40" stroke-linejoin="round"/>
<path d="M192.19 149.92 C192.19 149.92 195.38 147.37 195.38 147.37 C195.38 147.37 198.58 149.92 198.58 149.92 C198.58 149.92 195.38 152.48 195.38 152.48 C195.38 152.48 192.19 149.92 192.19 149.92 Z" fill="#E6E8E0" stroke="#0B1A1E" stroke-width="1.40" stroke-linejoin="round"/>
<path d="M203.53 150.12 C203.53 150.12 206.68 147.60 206.68 147.60 C206.68 147.60 209.82 150.12 209.82 150.12 C209.82 150.12 206.68 152.63 206.68 152.63 C206.68 152.63 203.53 150.12 203.53 150.12 Z" fill="#E6E8E0" stroke="#0B1A1E" stroke-width="1.40" stroke-linejoin="round"/>
<path d="M214.88 150.37 C214.88 150.37 217.97 147.90 217.97 147.90 C217.97 147.90 221.07 150.37 221.07 150.37 C221.07 150.37 217.97 152.85 217.97 152.85 C217.97 152.85 214.88 150.37 214.88 150.37 Z" fill="#E6E8E0" stroke="#0B1A1E" stroke-width="1.40" stroke-linejoin="round"/>
<path d="M226.23 150.68 C226.23 150.68 229.27 148.25 229.27 148.25 C229.27 148.25 232.31 150.68 232.31 150.68 C232.31 150.68 229.27 153.11 229.27 153.11 C229.27 153.11 226.23 150.68 226.23 150.68 Z" fill="#E6E8E0" stroke="#0B1A1E" stroke-width="1.40" stroke-linejoin="round"/>
<path d="M237.58 151.04 C237.58 151.04 240.57 148.65 240.57 148.65 C240.57 148.65 243.55 151.04 243.55 151.04 C243.55 151.04 240.57 153.43 240.57 153.43 C240.57 153.43 237.58 151.04 237.58 151.04 Z" fill="#E6E8E0" stroke="#0B1A1E" stroke-width="1.40" stroke-linejoin="round"/>
<path d="M248.92 151.45 C248.92 151.45 251.86 149.10 251.86 149.10 C251.86 149.10 254.80 151.45 254.80 151.45 C254.80 151.45 251.86 153.80 251.86 153.80 C251.86 153.80 248.92 151.45 248.92 151.45 Z" fill="#E6E8E0" stroke="#0B1A1E" stroke-width="1.40" stroke-linejoin="round"/>
<path d="M260.27 151.91 C260.27 151.91 263.16 149.60 263.16 149.60 C263.16 149.60 266.04 151.91 266.04 151.91 C266.04 151.91 263.16 154.22 263.16 154.22 C263.16 154.22 260.27 151.91 260.27 151.91 Z" fill="#E6E8E0" stroke="#0B1A1E" stroke-width="1.40" stroke-linejoin="round"/>
<path d="M271.62 152.42 C271.62 152.42 274.45 150.15 274.45 150.15 C274.45 150.15 277.28 152.42 277.28 152.42 C277.28 152.42 274.45 154.68 274.45 154.68 C274.45 154.68 271.62 152.42 271.62 152.42 Z" fill="#E6E8E0" stroke="#0B1A1E" stroke-width="1.40" stroke-linejoin="round"/>
<path d="M282.97 152.96 C282.97 152.96 285.75 150.74 285.75 150.74 C285.75 150.74 288.53 152.96 288.53 152.96 C288.53 152.96 285.75 155.19 285.75 155.19 C285.75 155.19 282.97 152.96 282.97 152.96 Z" fill="#E6E8E0" stroke="#0B1A1E" stroke-width="1.40" stroke-linejoin="round"/>
<path d="M294.32 153.55 C294.32 153.55 297.04 151.37 297.04 151.37 C297.04 151.37 299.77 153.55 299.77 153.55 C299.77 153.55 297.04 155.73 297.04 155.73 C297.04 155.73 294.32 153.55 294.32 153.55 Z" fill="#E6E8E0" stroke="#0B1A1E" stroke-width="1.40" stroke-linejoin="round"/>
<path d="M305.66 154.17 C305.66 154.17 308.34 152.03 308.34 152.03 C308.34 152.03 311.02 154.17 311.02 154.17 C311.02 154.17 308.34 156.31 308.34 156.31 C308.34 156.31 305.66 154.17 305.66 154.17 Z" fill="#E6E8E0" stroke="#0B1A1E" stroke-width="1.40" stroke-linejoin="round"/>
<path d="M317.01 154.81 C317.01 154.81 319.64 152.71 319.64 152.71 C319.64 152.71 322.26 154.81 322.26 154.81 C322.26 154.81 319.64 156.91 319.64 156.91 C319.64 156.91 317.01 154.81 317.01 154.81 Z" fill="#E6E8E0" stroke="#0B1A1E" stroke-width="1.40" stroke-linejoin="round"/>
<path d="M328.36 155.47 C328.36 155.47 330.93 153.42 330.93 153.42 C330.93 153.42 333.50 155.47 333.50 155.47 C333.50 155.47 330.93 157.53 330.93 157.53 C330.93 157.53 328.36 155.47 328.36 155.47 Z" fill="#E6E8E0" stroke="#0B1A1E" stroke-width="1.40" stroke-linejoin="round"/>
<path d="M339.71 156.14 C339.71 156.14 342.23 154.13 342.23 154.13 C342.23 154.13 344.75 156.14 344.75 156.14 C344.75 156.14 342.23 158.16 342.23 158.16 C342.23 158.16 339.71 156.14 339.71 156.14 Z" fill="#E6E8E0" stroke="#0B1A1E" stroke-width="1.40" stroke-linejoin="round"/>
<path d="M351.05 156.80 C351.05 156.80 353.52 154.83 353.52 154.83 C353.52 154.83 355.99 156.80 355.99 156.80 C355.99 156.80 353.52 158.78 353.52 158.78 C353.52 158.78 351.05 156.80 351.05 156.80 Z" fill="#E6E8E0" stroke="#0B1A1E" stroke-width="1.40" stroke-linejoin="round"/>
<path d="M362.40 157.43 C362.40 157.43 364.82 155.50 364.82 155.50 C364.82 155.50 367.24 157.43 367.24 157.43 C367.24 157.43 364.82 159.37 364.82 159.37 C364.82 159.37 362.40 157.43 362.40 157.43 Z" fill="#E6E8E0" stroke="#0B1A1E" stroke-width="1.40" stroke-linejoin="round"/>
<path d="M373.75 157.98 C373.75 157.98 376.11 156.09 376.11 156.09 C376.11 156.09 378.48 157.98 378.48 157.98 C378.48 157.98 376.11 159.88 376.11 159.88 C376.11 159.88 373.75 157.98 373.75 157.98 Z" fill="#E6E8E0" stroke="#0B1A1E" stroke-width="1.40" stroke-linejoin="round"/>
<path d="M22.53 164.27 C24.42 164.48 30.07 165.71 33.83 165.54 C37.60 165.37 43.25 163.64 45.13 163.26" fill="none" stroke="#0B1A1E" stroke-width="2.40" stroke-linejoin="round" stroke-linecap="round"/>
<path d="M121.70 151.80 C129.25 150.95 150.60 156.03 163.55 160.48 C176.50 164.93 199.40 178.51 199.40 178.51 C199.40 178.51 177.19 178.36 163.66 176.21 C150.14 174.06 125.25 169.68 118.25 165.62 C111.26 161.55 114.15 152.66 121.70 151.80 Z" fill="#C9C6A8" stroke="#0B1A1E" stroke-width="2.40" stroke-linejoin="round"/>
<path d="M123.43 159.57 C135.24 161.83 182.48 170.87 194.29 173.13" fill="none" stroke="#0B1A1E" stroke-width="1.00" stroke-linejoin="round" opacity="0.30"/>
<path d="M123.43 159.57 C135.08 162.48 181.67 174.09 193.32 177.00" fill="none" stroke="#0B1A1E" stroke-width="1.00" stroke-linejoin="round" opacity="0.30"/>
<path d="M123.43 159.57 C134.92 163.12 180.87 177.32 192.36 180.87" fill="none" stroke="#0B1A1E" stroke-width="1.00" stroke-linejoin="round" opacity="0.30"/>
<circle cx="70.05" cy="152.37" r="14.24" fill="#D9CFA8" stroke="#0B1A1E" stroke-width="2.20" stroke-linejoin="round"/>
<circle cx="70.05" cy="152.37" r="8.54" fill="#0B1A1E"/>
<circle cx="66.49" cy="148.39" r="2.85" fill="#FFFFFF" opacity="0.95"/>
</svg>