<svg xmlns="http://www.w3.org/2000/svg" viewBox="0 0 512 320" width="512" height="320">
<title>Pintachara</title>
<defs>
<linearGradient id="gBody" x1="0" y1="0" x2="0" y2="1"><stop offset="0" stop-color="#6B685B"/><stop offset="0.42" stop-color="#C8C2B2"/><stop offset="0.78" stop-color="#F3F0E6"/><stop offset="1" stop-color="#F3F0E6"/></linearGradient>
<pattern id="pScale" width="16.1" height="13.0" patternUnits="userSpaceOnUse"><path d="M4.0 -6.5 A4.0 6.5 0 0 1 4.0 6.5 M4.0 6.5 A4.0 6.5 0 0 1 4.0 19.5 M12.1 0.0 A4.0 6.5 0 0 1 12.1 13.0 " fill="none" stroke="#0B1A1E" stroke-width="1.1"/></pattern>
<clipPath id="cBody"><path d="M394.54 179.61 C394.51 183.20 394.47 179.63 394.35 179.65 C394.23 179.68 394.04 179.72 393.80 179.77 C393.55 179.82 393.24 179.89 392.88 179.97 C392.51 180.04 392.08 180.13 391.59 180.24 C391.10 180.34 390.54 180.45 389.93 180.58 C389.32 180.71 388.65 180.85 387.92 181.00 C387.19 181.15 386.40 181.31 385.55 181.48 C384.70 181.66 383.80 181.84 382.83 182.04 C381.87 182.23 380.84 182.44 379.76 182.65 C378.68 182.87 377.55 183.09 376.36 183.33 C375.16 183.56 373.92 183.80 372.62 184.05 C371.31 184.30 369.96 184.56 368.55 184.83 C367.14 185.10 365.68 185.37 364.17 185.65 C362.65 185.93 361.09 186.22 359.48 186.51 C357.86 186.81 356.20 187.11 354.48 187.41 C352.77 187.71 351.01 188.02 349.20 188.33 C347.40 188.64 345.54 188.96 343.65 189.28 C341.75 189.59 339.81 189.91 337.82 190.24 C335.84 190.56 333.81 190.88 331.74 191.21 C329.67 191.53 327.56 191.86 325.42 192.19 C323.27 192.51 321.08 192.84 318.86 193.16 C316.64 193.48 314.38 193.81 312.09 194.13 C309.80 194.45 307.47 194.77 305.11 195.08 C302.76 195.40 300.37 195.71 297.95 196.02 C295.53 196.33 293.08 196.63 290.61 196.93 C288.13 197.23 285.63 197.53 283.11 197.82 C280.58 198.11 278.03 198.39 275.46 198.67 C272.89 198.94 270.29 199.22 267.68 199.48 C265.07 199.74 262.44 200.00 259.79 200.25 C257.15 200.50 254.48 200.74 251.80 200.97 C249.13 201.21 246.43 201.43 243.73 201.65 C241.03 201.87 238.32 202.07 235.60 202.27 C232.88 202.47 230.14 202.66 227.41 202.84 C224.68 203.02 221.93 203.19 219.19 203.35 C216.45 203.51 213.70 203.66 210.95 203.81 C208.21 203.95 205.46 204.08 202.72 204.20 C199.97 204.32 197.23 204.43 194.50 204.53 C191.76 204.63 189.03 204.73 186.31 204.81 C183.59 204.89 180.87 204.96 178.17 205.02 C175.47 205.08 172.78 205.13 170.10 205.18 C167.43 205.22 164.76 205.25 162.11 205.27 C159.47 205.30 156.83 205.32 154.22 205.31 C151.61 205.31 149.02 205.29 146.45 205.23 C143.88 205.17 141.32 205.07 138.80 204.96 C136.28 204.84 133.77 204.70 131.30 204.54 C128.83 204.38 126.38 204.20 123.96 204.00 C121.54 203.81 119.15 203.60 116.79 203.38 C114.44 203.15 112.11 202.92 109.82 202.67 C107.53 202.42 105.27 202.17 103.05 201.90 C100.82 201.64 98.64 201.36 96.49 201.08 C94.34 200.80 92.23 200.52 90.17 200.23 C88.10 199.94 86.07 199.64 84.09 199.34 C82.10 199.04 80.16 198.74 78.26 198.44 C76.36 198.14 74.51 197.84 72.70 197.54 C70.90 197.24 69.13 196.93 67.42 196.64 C65.71 196.34 64.04 196.04 62.43 195.75 C60.82 195.45 59.25 195.16 57.74 194.88 C56.23 194.60 54.76 194.32 53.36 194.04 C51.95 193.77 50.59 193.50 49.29 193.24 C47.99 192.98 46.74 192.73 45.55 192.49 C44.36 192.25 43.22 192.01 42.14 191.78 C41.06 191.56 40.04 191.34 39.08 191.14 C38.11 190.93 37.20 190.74 36.36 190.56 C35.51 190.37 34.72 190.20 33.99 190.04 C33.26 189.88 32.58 189.73 31.97 189.60 C31.36 189.46 30.81 189.34 30.32 189.23 C29.83 189.12 29.40 189.02 29.03 188.94 C28.66 188.86 28.35 188.79 28.11 188.73 C27.86 188.68 27.68 188.63 27.55 188.61 C27.43 188.58 28.07 189.29 27.37 188.56 C26.67 187.84 24.24 186.06 23.34 184.27 C22.45 182.48 22.00 179.97 22.00 177.82 C22.00 175.68 22.45 173.17 23.34 171.38 C24.24 169.59 26.67 167.81 27.37 167.08 C28.07 166.36 27.43 167.06 27.55 167.01 C27.68 166.96 27.86 166.89 28.11 166.79 C28.35 166.69 28.66 166.57 29.03 166.43 C29.40 166.28 29.83 166.11 30.32 165.92 C30.81 165.73 31.36 165.51 31.97 165.27 C32.58 165.04 33.26 164.77 33.99 164.49 C34.72 164.21 35.51 163.91 36.36 163.58 C37.20 163.26 38.11 162.91 39.08 162.55 C40.04 162.19 41.06 161.80 42.14 161.40 C43.22 161.00 44.36 160.58 45.55 160.15 C46.74 159.72 47.99 159.26 49.29 158.80 C50.59 158.33 51.95 157.85 53.36 157.36 C54.76 156.86 56.23 156.36 57.74 155.84 C59.25 155.32 60.82 154.79 62.43 154.25 C64.04 153.71 65.71 153.17 67.42 152.61 C69.13 152.06 70.90 151.50 72.70 150.93 C74.51 150.36 76.36 149.79 78.26 149.22 C80.16 148.65 82.10 148.07 84.09 147.49 C86.07 146.92 88.10 146.34 90.17 145.77 C92.23 145.19 94.34 144.62 96.49 144.06 C98.64 143.49 100.82 142.93 103.05 142.38 C105.27 141.82 107.53 141.28 109.82 140.75 C112.11 140.21 114.44 139.69 116.79 139.18 C119.15 138.68 121.54 138.18 123.96 137.71 C126.38 137.24 128.83 136.79 131.30 136.36 C133.77 135.94 136.28 135.53 138.80 135.16 C141.32 134.80 143.88 134.43 146.45 134.19 C149.02 133.94 151.61 133.79 154.22 133.72 C156.83 133.65 159.47 133.74 162.11 133.76 C164.76 133.78 167.43 133.81 170.10 133.85 C172.78 133.89 175.47 133.94 178.17 134.00 C180.87 134.06 183.59 134.12 186.31 134.20 C189.03 134.28 191.76 134.37 194.50 134.46 C197.23 134.56 199.97 134.66 202.72 134.78 C205.46 134.89 208.21 135.02 210.95 135.15 C213.70 135.29 216.45 135.43 219.19 135.58 C221.93 135.74 224.68 135.90 227.41 136.07 C230.14 136.24 232.88 136.42 235.60 136.61 C238.32 136.80 241.03 137.00 243.73 137.20 C246.43 137.41 249.13 137.62 251.80 137.84 C254.48 138.06 257.15 138.29 259.79 138.53 C262.44 138.77 265.07 139.01 267.68 139.26 C270.29 139.51 272.89 139.77 275.46 140.03 C278.03 140.30 280.58 140.57 283.11 140.84 C285.63 141.12 288.13 141.40 290.61 141.68 C293.08 141.97 295.53 142.26 297.95 142.55 C300.37 142.84 302.76 143.14 305.11 143.44 C307.47 143.74 309.80 144.04 312.09 144.35 C314.38 144.65 316.64 144.96 318.86 145.27 C321.08 145.57 323.27 145.88 325.42 146.19 C327.56 146.50 329.67 146.81 331.74 147.12 C333.81 147.43 335.84 147.74 337.82 148.04 C339.81 148.35 341.75 148.65 343.65 148.96 C345.54 149.26 347.40 149.56 349.20 149.85 C351.01 150.15 352.77 150.44 354.48 150.73 C356.20 151.02 357.86 151.30 359.48 151.58 C361.09 151.86 362.65 152.13 364.17 152.40 C365.68 152.66 367.14 152.93 368.55 153.18 C369.96 153.43 371.31 153.68 372.62 153.92 C373.92 154.16 375.16 154.39 376.36 154.61 C377.55 154.83 378.68 155.04 379.76 155.25 C380.84 155.45 381.87 155.65 382.83 155.83 C383.80 156.02 384.70 156.19 385.55 156.36 C386.40 156.52 387.19 156.68 387.92 156.82 C388.65 156.96 389.32 157.10 389.93 157.22 C390.54 157.34 391.10 157.45 391.59 157.54 C392.08 157.64 392.51 157.73 392.88 157.80 C393.24 157.88 393.55 157.94 393.80 157.99 C394.04 158.04 394.23 158.07 394.35 158.10 C394.47 158.12 394.51 154.55 394.54 158.14 C394.57 161.72 394.57 176.03 394.54 179.61 Z"/></clipPath>
</defs>
<path d="M381.69 158.14 C390.99 151.21 419.44 146.04 437.50 138.09 C455.55 130.13 490.00 110.40 490.00 110.40 C490.00 110.40 477.02 145.05 469.38 154.79 C461.74 164.54 444.18 168.87 444.18 168.87 C444.18 168.87 461.74 173.21 469.38 182.96 C477.02 192.70 490.00 227.35 490.00 227.35 C490.00 227.35 455.55 207.62 437.50 199.66 C419.44 191.71 390.99 186.54 381.69 179.61 C372.38 172.69 372.38 165.06 381.69 158.14 Z" fill="#A79E89" stroke="#0B1A1E" stroke-width="2.40" stroke-linejoin="round"/>
<path d="M385.36 168.87 C393.18 164.26 424.46 145.78 432.28 141.17" fill="none" stroke="#0B1A1E" stroke-width="1.00" stroke-linejoin="round" opacity="0.25"/>
<path d="M385.36 168.87 C401.05 160.10 463.84 125.02 479.54 116.25" fill="none" stroke="#0B1A1E" stroke-width="1.00" stroke-linejoin="round" opacity="0.25"/>
<path d="M385.36 168.87 C397.96 166.76 448.37 158.31 460.98 156.20" fill="none" stroke="#0B1A1E" stroke-width="1.00" stroke-linejoin="round" opacity="0.25"/>
<path d="M385.36 168.87 C394.18 168.87 429.47 168.87 438.30 168.87" fill="none" stroke="#0B1A1E" stroke-width="1.00" stroke-linejoin="round" opacity="0.25"/>
<path d="M385.36 168.87 C397.96 170.99 448.37 179.44 460.98 181.55" fill="none" stroke="#0B1A1E" stroke-width="1.00" stroke-linejoin="round" opacity="0.25"/>
<path d="M385.36 168.87 C401.05 177.65 463.84 212.73 479.54 221.50" fill="none" stroke="#0B1A1E" stroke-width="1.00" stroke-linejoin="round" opacity="0.25"/>
<path d="M385.36 168.87 C393.18 173.49 424.46 191.96 432.28 196.58" fill="none" stroke="#0B1A1E" stroke-width="1.00" stroke-linejoin="round" opacity="0.25"/>
<path d="M144.86 134.36 C147.92 125.15 163.22 86.45 163.22 86.45 C163.22 86.45 171.75 89.23 175.59 93.18 C179.43 97.13 185.87 103.33 186.26 110.13 C186.65 116.93 179.30 128.79 177.91 133.99 C176.52 139.19 178.83 140.13 177.91 141.34 C176.99 142.54 174.24 141.26 172.40 141.23 C170.56 141.20 168.73 141.17 166.89 141.15 C165.06 141.13 163.22 141.11 161.39 141.10 C159.55 141.08 157.71 141.06 155.88 141.07 C154.04 141.08 152.21 141.06 150.37 141.16 C148.53 141.27 145.78 142.84 144.86 141.71 C143.95 140.57 141.80 143.57 144.86 134.36 Z" fill="#A79E89" stroke="#0B1A1E" stroke-width="2.40" stroke-linejoin="round"/>
<path d="M153.12 131.88 C155.59 125.51 165.47 100.00 167.94 93.62" fill="none" stroke="#0B1A1E" stroke-width="1.00" stroke-linejoin="round" opacity="0.28"/>
<path d="M161.39 131.92 C163.63 126.14 172.63 103.02 174.88 97.24" fill="none" stroke="#0B1A1E" stroke-width="1.00" stroke-linejoin="round" opacity="0.28"/>
<path d="M169.65 132.01 C171.43 127.48 178.57 109.37 180.36 104.85" fill="none" stroke="#0B1A1E" stroke-width="1.00" stroke-linejoin="round" opacity="0.28"/>
<path d="M255.01 138.11 C258.97 135.25 269.92 129.85 278.73 128.26 C287.54 126.67 298.53 127.12 307.89 128.55 C317.24 129.98 329.51 133.54 334.84 136.84 C340.16 140.14 339.67 145.32 339.83 148.35 C339.99 151.39 338.71 154.28 335.79 155.07 C332.87 155.86 326.81 153.73 322.33 153.10 C317.84 152.46 313.35 151.85 308.86 151.27 C304.38 150.68 299.89 150.12 295.40 149.59 C290.91 149.05 286.43 148.54 281.94 148.06 C277.45 147.58 272.96 147.12 268.48 146.68 C263.99 146.25 257.26 146.88 255.01 145.46 C252.77 144.03 251.06 140.98 255.01 138.11 Z" fill="#A79E89" stroke="#0B1A1E" stroke-width="2.40" stroke-linejoin="round"/>
<path d="M263.99 137.08 C264.24 136.60 265.23 134.69 265.48 134.21" fill="none" stroke="#0B1A1E" stroke-width="1.00" stroke-linejoin="round" opacity="0.28"/>
<path d="M272.96 137.95 C273.46 136.69 275.44 131.64 275.94 130.38" fill="none" stroke="#0B1A1E" stroke-width="1.00" stroke-linejoin="round" opacity="0.28"/>
<path d="M281.94 138.88 C282.53 137.32 284.90 131.07 285.49 129.51" fill="none" stroke="#0B1A1E" stroke-width="1.00" stroke-linejoin="round" opacity="0.28"/>
<path d="M290.91 139.88 C291.55 138.18 294.09 131.38 294.73 129.68" fill="none" stroke="#0B1A1E" stroke-width="1.00" stroke-linejoin="round" opacity="0.28"/>
<path d="M299.89 140.95 C300.57 139.11 303.29 131.75 303.97 129.90" fill="none" stroke="#0B1A1E" stroke-width="1.00" stroke-linejoin="round" opacity="0.28"/>
<path d="M308.86 142.09 C309.52 140.32 312.15 133.23 312.81 131.46" fill="none" stroke="#0B1A1E" stroke-width="1.00" stroke-linejoin="round" opacity="0.28"/>
<path d="M317.84 143.29 C318.43 141.73 320.80 135.48 321.39 133.92" fill="none" stroke="#0B1A1E" stroke-width="1.00" stroke-linejoin="round" opacity="0.28"/>
<path d="M326.81 144.56 C327.34 143.21 329.44 137.80 329.96 136.45" fill="none" stroke="#0B1A1E" stroke-width="1.00" stroke-linejoin="round" opacity="0.28"/>
<path d="M284.39 197.67 C286.70 203.05 298.27 222.64 298.27 222.64 C298.27 222.64 307.47 212.70 312.86 208.74 C318.25 204.79 327.86 201.78 330.61 198.92 C333.35 196.06 329.69 194.01 329.33 191.59 C328.97 189.16 329.82 185.39 328.45 184.38 C327.08 183.36 323.55 185.13 321.10 185.49 C318.66 185.85 316.21 186.20 313.76 186.55 C311.31 186.90 308.86 187.23 306.42 187.56 C303.97 187.89 301.52 188.22 299.07 188.53 C296.63 188.85 294.18 189.15 291.73 189.45 C289.28 189.75 285.61 188.96 284.39 190.33 C283.16 191.70 282.07 192.28 284.39 197.67 Z" fill="#A79E89" stroke="#0B1A1E" stroke-width="2.40" stroke-linejoin="round"/>
<path d="M293.20 198.45 C294.34 201.75 298.90 214.93 300.04 218.22" fill="none" stroke="#0B1A1E" stroke-width="1.00" stroke-linejoin="round" opacity="0.28"/>
<path d="M302.01 197.33 C302.88 199.78 306.37 209.58 307.25 212.02" fill="none" stroke="#0B1A1E" stroke-width="1.00" stroke-linejoin="round" opacity="0.28"/>
<path d="M310.82 196.14 C311.46 197.84 314.00 204.63 314.63 206.33" fill="none" stroke="#0B1A1E" stroke-width="1.00" stroke-linejoin="round" opacity="0.28"/>
<path d="M319.63 194.88 C320.12 196.12 322.08 201.06 322.56 202.30" fill="none" stroke="#0B1A1E" stroke-width="1.00" stroke-linejoin="round" opacity="0.28"/>
<path d="M215.88 194.17 C219.41 194.72 224.92 201.28 227.24 205.72 C229.57 210.16 229.83 220.80 229.83 220.80 C229.83 220.80 218.95 217.15 214.98 214.09 C211.01 211.03 205.88 205.75 206.03 202.43 C206.18 199.11 212.34 193.62 215.88 194.17 Z" fill="#A79E89" stroke="#0B1A1E" stroke-width="2.40" stroke-linejoin="round"/>
<circle cx="440.56" cy="152.28" r="1.85" fill="#1E1E1A" opacity="0.80"/>
<circle cx="465.19" cy="144.25" r="2.86" fill="#1E1E1A" opacity="0.80"/>
<circle cx="473.29" cy="126.94" r="1.78" fill="#1E1E1A" opacity="0.80"/>
<circle cx="396.90" cy="179.27" r="1.67" fill="#1E1E1A" opacity="0.80"/>
<circle cx="416.30" cy="163.11" r="1.96" fill="#1E1E1A" opacity="0.80"/>
<circle cx="440.82" cy="142.06" r="1.96" fill="#1E1E1A" opacity="0.80"/>
<circle cx="412.30" cy="182.90" r="1.56" fill="#1E1E1A" opacity="0.80"/>
<circle cx="449.78" cy="144.22" r="1.79" fill="#1E1E1A" opacity="0.80"/>
<circle cx="444.73" cy="194.33" r="1.73" fill="#1E1E1A" opacity="0.80"/>
<circle cx="166.23" cy="130.00" r="1.75" fill="#1E1E1A" opacity="0.80"/>
<circle cx="175.98" cy="116.77" r="2.35" fill="#1E1E1A" opacity="0.80"/>
<circle cx="172.20" cy="108.81" r="2.17" fill="#1E1E1A" opacity="0.80"/>
<circle cx="176.08" cy="137.75" r="2.72" fill="#1E1E1A" opacity="0.80"/>
<circle cx="154.20" cy="132.57" r="2.66" fill="#1E1E1A" opacity="0.80"/>
<circle cx="167.27" cy="125.20" r="2.70" fill="#1E1E1A" opacity="0.80"/>
<circle cx="146.34" cy="132.00" r="2.54" fill="#1E1E1A" opacity="0.80"/>
<circle cx="296.22" cy="145.81" r="1.55" fill="#1E1E1A" opacity="0.80"/>
<circle cx="290.19" cy="141.43" r="2.34" fill="#1E1E1A" opacity="0.80"/>
<circle cx="301.14" cy="140.60" r="2.85" fill="#1E1E1A" opacity="0.80"/>
<circle cx="292.80" cy="132.35" r="2.18" fill="#1E1E1A" opacity="0.80"/>
<circle cx="277.41" cy="138.04" r="2.46" fill="#1E1E1A" opacity="0.80"/>
<circle cx="303.66" cy="138.70" r="2.61" fill="#1E1E1A" opacity="0.80"/>
<circle cx="268.09" cy="140.61" r="2.72" fill="#1E1E1A" opacity="0.80"/>
<circle cx="263.89" cy="145.53" r="2.84" fill="#1E1E1A" opacity="0.80"/>
<circle cx="326.00" cy="140.59" r="1.56" fill="#1E1E1A" opacity="0.80"/>
<circle cx="309.38" cy="129.56" r="2.24" fill="#1E1E1A" opacity="0.80"/>
<path d="M394.54 179.61 C394.51 183.20 394.47 179.63 394.35 179.65 C394.23 179.68 394.04 179.72 393.80 179.77 C393.55 179.82 393.24 179.89 392.88 179.97 C392.51 180.04 392.08 180.13 391.59 180.24 C391.10 180.34 390.54 180.45 389.93 180.58 C389.32 180.71 388.65 180.85 387.92 181.00 C387.19 181.15 386.40 181.31 385.55 181.48 C384.70 181.66 383.80 181.84 382.83 182.04 C381.87 182.23 380.84 182.44 379.76 182.65 C378.68 182.87 377.55 183.09 376.36 183.33 C375.16 183.56 373.92 183.80 372.62 184.05 C371.31 184.30 369.96 184.56 368.55 184.83 C367.14 185.10 365.68 185.37 364.17 185.65 C362.65 185.93 361.09 186.22 359.48 186.51 C357.86 186.81 356.20 187.11 354.48 187.41 C352.77 187.71 351.01 188.02 349.20 188.33 C347.40 188.64 345.54 188.96 343.65 189.28 C341.75 189.59 339.81 189.91 337.82 190.24 C335.84 190.56 333.81 190.88 331.74 191.21 C329.67 191.53 327.56 191.86 325.42 192.19 C323.27 192.51 321.08 192.84 318.86 193.16 C316.64 193.48 314.38 193.81 312.09 194.13 C309.80 194.45 307.47 194.77 305.11 195.08 C302.76 195.40 300.37 195.71 297.95 196.02 C295.53 196.33 293.08 196.63 290.61 196.93 C288.13 197.23 285.63 197.53 283.11 197.82 C280.58 198.11 278.03 198.39 275.46 198.67 C272.89 198.94 270.29 199.22 267.68 199.48 C265.07 199.74 262.44 200.00 259.79 200.25 C257.15 200.50 254.48 200.74 251.80 200.97 C249.13 201.21 246.43 201.43 243.73 201.65 C241.03 201.87 238.32 202.07 235.60 202.27 C232.88 202.47 230.14 202.66 227.41 202.84 C224.68 203.02 221.93 203.19 219.19 203.35 C216.45 203.51 213.70 203.66 210.95 203.81 C208.21 203.95 205.46 204.08 202.72 204.20 C199.97 204.32 197.23 204.43 194.50 204.53 C191.76 204.63 189.03 204.73 186.31 204.81 C183.59 204.89 180.87 204.96 178.17 205.02 C175.47 205.08 172.78 205.13 170.10 205.18 C167.43 205.22 164.76 205.25 162.11 205.27 C159.47 205.30 156.83 205.32 154.22 205.31 C151.61 205.31 149.02 205.29 146.45 205.23 C143.88 205.17 141.32 205.07 138.80 204.96 C136.28 204.84 133.77 204.70 131.30 204.54 C128.83 204.38 126.38 204.20 123.96 204.00 C121.54 203.81 119.15 203.60 116.79 203.38 C114.44 203.15 112.11 202.92 109.82 202.67 C107.53 202.42 105.27 202.17 103.05 201.90 C100.82 201.64 98.64 201.36 96.49 201.08 C94.34 200.80 92.23 200.52 90.17 200.23 C88.10 199.94 86.07 199.64 84.09 199.34 C82.10 199.04 80.16 198.74 78.26 198.44 C76.36 198.14 74.51 197.84 72.70 197.54 C70.90 197.24 69.13 196.93 67.42 196.64 C65.71 196.34 64.04 196.04 62.43 195.75 C60.82 195.45 59.25 195.16 57.74 194.88 C56.23 194.60 54.76 194.32 53.36 194.04 C51.95 193.77 50.59 193.50 49.29 193.24 C47.99 192.98 46.74 192.73 45.55 192.49 C44.36 192.25 43.22 192.01 42.14 191.78 C41.06 191.56 40.04 191.34 39.08 191.14 C38.11 190.93 37.20 190.74 36.36 190.56 C35.51 190.37 34.72 190.20 33.99 190.04 C33.26 189.88 32.58 189.73 31.97 189.60 C31.36 189.46 30.81 189.34 30.32 189.23 C29.83 189.12 29.40 189.02 29.03 188.94 C28.66 188.86 28.35 188.79 28.11 188.73 C27.86 188.68 27.68 188.63 27.55 188.61 C27.43 188.58 28.07 189.29 27.37 188.56 C26.67 187.84 24.24 186.06 23.34 184.27 C22.45 182.48 22.00 179.97 22.00 177.82 C22.00 175.68 22.45 173.17 23.34 171.38 C24.24 169.59 26.67 167.81 27.37 167.08 C28.07 166.36 27.43 167.06 27.55 167.01 C27.68 166.96 27.86 166.89 28.11 166.79 C28.35 166.69 28.66 166.57 29.03 166.43 C29.40 166.28 29.83 166.11 30.32 165.92 C30.81 165.73 31.36 165.51 31.97 165.27 C32.58 165.04 33.26 164.77 33.99 164.49 C34.72 164.21 35.51 163.91 36.36 163.58 C37.20 163.26 38.11 162.91 39.08 162.55 C40.04 162.19 41.06 161.80 42.14 161.40 C43.22 161.00 44.36 160.58 45.55 160.15 C46.74 159.72 47.99 159.26 49.29 158.80 C50.59 158.33 51.95 157.85 53.36 157.36 C54.76 156.86 56.23 156.36 57.74 155.84 C59.25 155.32 60.82 154.79 62.43 154.25 C64.04 153.71 65.71 153.17 67.42 152.61 C69.13 152.06 70.90 151.50 72.70 150.93 C74.51 150.36 76.36 149.79 78.26 149.22 C80.16 148.65 82.10 148.07 84.09 147.49 C86.07 146.92 88.10 146.34 90.17 145.77 C92.23 145.19 94.34 144.62 96.49 144.06 C98.64 143.49 100.82 142.93 103.05 142.38 C105.27 141.82 107.53 141.28 109.82 140.75 C112.11 140.21 114.44 139.69 116.79 139.18 C119.15 138.68 121.54 138.18 123.96 137.71 C126.38 137.24 128.83 136.79 131.30 136.36 C133.77 135.94 136.28 135.53 138.80 135.16 C141.32 134.80 143.88 134.43 146.45 134.19 C149.02 133.94 151.61 133.79 154.22 133.72 C156.83 133.65 159.47 133.74 162.11 133.76 C164.76 133.78 167.43 133.81 170.10 133.85 C172.78 133.89 175.47 133.94 178.17 134.00 C180.87 134.06 183.59 134.12 186.31 134.20 C189.03 134.28 191.76 134.37 194.50 134.46 C197.23 134.56 199.97 134.66 202.72 134.78 C205.46 134.89 208.21 135.02 210.95 135.15 C213.70 135.29 216.45 135.43 219.19 135.58 C221.93 135.74 224.68 135.90 227.41 136.07 C230.14 136.24 232.88 136.42 235.60 136.61 C238.32 136.80 241.03 137.00 243.73 137.20 C246.43 137.41 249.13 137.62 251.80 137.84 C254.48 138.06 257.15 138.29 259.79 138.53 C262.44 138.77 265.07 139.01 267.68 139.26 C270.29 139.51 272.89 139.77 275.46 140.03 C278.03 140.30 280.58 140.57 283.11 140.84 C285.63 141.12 288.13 141.40 290.61 141.68 C293.08 141.97 295.53 142.26 297.95 142.55 C300.37 142.84 302.76 143.14 305.11 143.44 C307.47 143.74 309.80 144.04 312.09 144.35 C314.38 144.65 316.64 144.96 318.86 145.27 C321.08 145.57 323.27 145.88 325.42 146.19 C327.56 146.50 329.67 146.81 331.74 147.12 C333.81 147.43 335.84 147.74 337.82 148.04 C339.81 148.35 341.75 148.65 343.65 148.96 C345.54 149.26 347.40 149.56 349.20 149.85 C351.01 150.15 352.77 150.44 354.48 150.73 C356.20 151.02 357.86 151.30 359.48 151.58 C361.09 151.86 362.65 152.13 364.17 152.40 C365.68 152.66 367.14 152.93 368.55 153.18 C369.96 153.43 371.31 153.68 372.62 153.92 C373.92 154.16 375.16 154.39 376.36 154.61 C377.55 154.83 378.68 155.04 379.76 155.25 C380.84 155.45 381.87 155.65 382.83 155.83 C383.80 156.02 384.70 156.19 385.55 156.36 C386.40 156.52 387.19 156.68 387.92 156.82 C388.65 156.96 389.32 157.10 389.93 157.22 C390.54 157.34 391.10 157.45 391.59 157.54 C392.08 157.64 392.51 157.73 392.88 157.80 C393.24 157.88 393.55 157.94 393.80 157.99 C394.04 158.04 394.23 158.07 394.35 158.10 C394.47 158.12 394.51 154.55 394.54 158.14 C394.57 161.72 394.57 176.03 394.54 179.61 Z" fill="url(#gBody)"/>
<g clip-path="url(#cBody)">
<path d="M151.42 133.72 C151.58 134.47 155.98 136.71 155.79 138.20 C155.60 139.70 151.70 141.16 150.29 142.67 C148.88 144.19 146.79 145.82 147.34 147.31 C147.89 148.80 152.33 150.16 153.60 151.62 C154.86 153.08 155.81 154.59 154.94 156.10 C154.06 157.60 149.37 159.14 148.33 160.64 C147.29 162.14 147.55 163.62 148.69 165.09 C149.84 166.57 153.55 168.78 155.20 169.52 C156.86 170.25 159.13 170.25 158.62 169.52 C158.10 168.78 153.25 166.57 152.11 165.09 C150.96 163.62 150.71 162.14 151.75 160.64 C152.79 159.14 157.47 157.60 158.35 156.10 C159.23 154.59 158.27 153.08 157.01 151.62 C155.74 150.16 151.30 148.80 150.75 147.31 C150.20 145.82 152.30 144.19 153.70 142.67 C155.11 141.16 159.01 139.70 159.20 138.20 C159.39 136.71 156.13 134.47 154.83 133.72 C153.53 132.97 151.26 132.97 151.42 133.72 Z" fill="#1E1E1A" opacity="0.70"/>
<path d="M186.32 134.25 C185.44 134.98 185.81 137.17 184.50 138.61 C183.18 140.06 178.87 141.45 178.42 142.91 C177.97 144.37 180.38 145.90 181.81 147.39 C183.24 148.89 186.93 150.41 187.01 151.89 C187.09 153.36 183.73 154.78 182.28 156.24 C180.83 157.70 178.00 159.17 178.30 160.64 C178.59 162.12 182.68 163.61 184.06 165.09 C185.43 166.57 185.56 168.77 186.55 169.50 C187.55 170.24 189.84 170.24 190.00 169.50 C190.15 168.77 188.87 166.57 187.50 165.09 C186.12 163.61 182.04 162.12 181.74 160.64 C181.45 159.17 184.27 157.70 185.72 156.24 C187.18 154.78 190.53 153.36 190.45 151.89 C190.38 150.41 186.68 148.89 185.25 147.39 C183.82 145.90 181.41 144.37 181.86 142.91 C182.31 141.45 186.62 140.06 187.94 138.61 C189.25 137.17 190.03 134.98 189.76 134.25 C189.49 133.53 187.20 133.53 186.32 134.25 Z" fill="#1E1E1A" opacity="0.70"/>
<path d="M216.43 135.60 C214.34 136.26 211.33 138.18 210.09 139.54 C208.86 140.90 208.10 142.32 209.02 143.78 C209.94 145.23 214.64 146.82 215.64 148.28 C216.63 149.73 216.18 151.11 215.00 152.50 C213.82 153.89 209.24 155.21 208.55 156.62 C207.86 158.03 209.49 159.50 210.85 160.93 C212.21 162.37 216.37 163.81 216.71 165.24 C217.05 166.66 212.49 168.77 212.90 169.47 C213.30 170.18 217.46 170.18 219.14 169.47 C220.81 168.77 223.29 166.66 222.94 165.24 C222.60 163.81 218.44 162.37 217.08 160.93 C215.72 159.50 214.09 158.03 214.78 156.62 C215.48 155.21 220.06 153.89 221.24 152.50 C222.42 151.11 222.87 149.73 221.87 148.28 C220.88 146.82 216.18 145.23 215.26 143.78 C214.33 142.32 215.09 140.90 216.33 139.54 C217.56 138.18 222.65 136.26 222.67 135.60 C222.68 134.95 218.53 134.95 216.43 135.60 Z" fill="#1E1E1A" opacity="0.70"/>
<path d="M244.27 137.48 C242.39 138.09 239.26 139.81 239.24 141.14 C239.22 142.47 242.71 144.04 244.16 145.46 C245.61 146.88 248.27 148.32 247.92 149.64 C247.56 150.96 243.39 152.09 242.03 153.37 C240.68 154.65 239.08 155.97 239.79 157.32 C240.49 158.67 245.08 160.12 246.25 161.47 C247.43 162.83 247.84 164.12 246.83 165.45 C245.82 166.77 240.28 168.76 240.22 169.43 C240.15 170.09 244.29 170.09 246.43 169.43 C248.57 168.76 252.04 166.77 253.04 165.45 C254.05 164.12 253.64 162.83 252.47 161.47 C251.29 160.12 246.71 158.67 246.00 157.32 C245.30 155.97 246.89 154.65 248.24 153.37 C249.60 152.09 253.78 150.96 254.13 149.64 C254.49 148.32 251.82 146.88 250.37 145.46 C248.93 144.04 245.43 142.47 245.45 141.14 C245.47 139.81 250.68 138.09 250.48 137.48 C250.28 136.88 246.14 136.88 244.27 137.48 Z" fill="#1E1E1A" opacity="0.70"/>
<path d="M271.77 139.95 C270.97 140.58 271.46 142.39 272.68 143.71 C273.89 145.03 278.43 146.61 279.06 147.87 C279.70 149.13 277.89 150.16 276.51 151.28 C275.13 152.40 271.07 153.41 270.78 154.60 C270.50 155.80 273.36 157.17 274.81 158.44 C276.27 159.70 279.59 160.98 279.50 162.19 C279.41 163.40 275.69 164.51 274.26 165.70 C272.83 166.90 270.53 168.75 270.92 169.36 C271.32 169.96 275.13 169.96 276.64 169.36 C278.15 168.75 278.55 166.90 279.98 165.70 C281.41 164.51 285.12 163.40 285.22 162.19 C285.31 160.98 281.98 159.70 280.53 158.44 C279.07 157.17 276.21 155.80 276.50 154.60 C276.78 153.41 280.84 152.40 282.22 151.28 C283.60 150.16 285.42 149.13 284.78 147.87 C284.14 146.61 279.61 145.03 278.39 143.71 C277.18 142.39 278.59 140.58 277.48 139.95 C276.38 139.32 272.57 139.32 271.77 139.95 Z" fill="#1E1E1A" opacity="0.70"/>
<path d="M302.30 143.42 C302.42 144.07 306.98 146.12 308.31 147.33 C309.64 148.53 311.05 149.67 310.29 150.65 C309.53 151.64 304.91 152.27 303.77 153.23 C302.63 154.19 302.42 155.29 303.47 156.41 C304.52 157.53 309.20 158.84 310.07 159.93 C310.93 161.03 309.94 161.97 308.67 162.99 C307.39 164.01 302.97 164.99 302.43 166.03 C301.89 167.08 304.05 168.71 305.44 169.25 C306.82 169.79 310.35 169.79 310.73 169.25 C311.11 168.71 307.18 167.08 307.72 166.03 C308.26 164.99 312.69 164.01 313.96 162.99 C315.23 161.97 316.22 161.03 315.36 159.93 C314.49 158.84 309.81 157.53 308.76 156.41 C307.71 155.29 307.93 154.19 309.06 153.23 C310.20 152.27 314.83 151.64 315.58 150.65 C316.34 149.67 314.93 148.53 313.60 147.33 C312.27 146.12 309.47 144.07 307.59 143.42 C305.71 142.77 302.18 142.77 302.30 143.42 Z" fill="#1E1E1A" opacity="0.70"/>
<path d="M336.22 148.25 C336.18 148.81 341.59 150.73 341.81 151.63 C342.03 152.52 339.02 152.93 337.56 153.63 C336.11 154.32 332.92 154.91 333.07 155.78 C333.22 156.66 337.06 157.89 338.47 158.86 C339.89 159.83 342.09 160.77 341.57 161.61 C341.06 162.44 336.66 163.07 335.37 163.88 C334.09 164.70 333.02 165.61 333.87 166.49 C334.72 167.36 338.39 168.68 340.46 169.12 C342.53 169.56 346.43 169.56 346.31 169.12 C346.19 168.68 340.57 167.36 339.72 166.49 C338.87 165.61 339.94 164.70 341.22 163.88 C342.51 163.07 346.91 162.44 347.42 161.61 C347.94 160.77 345.74 159.83 344.32 158.86 C342.91 157.89 339.07 156.66 338.92 155.78 C338.77 154.91 341.96 154.32 343.41 153.63 C344.87 152.93 347.88 152.52 347.66 151.63 C347.43 150.73 343.98 148.81 342.07 148.25 C340.17 147.69 336.27 147.69 336.22 148.25 Z" fill="#1E1E1A" opacity="0.70"/>
<path d="M371.41 154.26 C370.40 154.57 372.53 155.64 371.44 156.10 C370.35 156.57 365.69 156.53 364.87 157.05 C364.05 157.58 365.24 158.45 366.54 159.23 C367.84 160.01 372.20 161.05 372.68 161.73 C373.16 162.42 370.85 162.78 369.43 163.33 C368.00 163.87 364.24 164.37 364.13 164.99 C364.01 165.62 367.29 166.42 368.74 167.09 C370.20 167.75 371.15 168.66 372.85 168.97 C374.56 169.28 378.66 169.28 378.99 168.97 C379.33 168.66 376.33 167.75 374.88 167.09 C373.43 166.42 370.15 165.62 370.27 164.99 C370.38 164.37 374.14 163.87 375.57 163.33 C376.99 162.78 379.30 162.42 378.82 161.73 C378.33 161.05 373.98 160.01 372.68 159.23 C371.38 158.45 370.19 157.58 371.01 157.05 C371.83 156.53 376.49 156.57 377.58 156.10 C378.67 155.64 378.58 154.57 377.55 154.26 C376.53 153.95 372.43 153.95 371.41 154.26 Z" fill="#1E1E1A" opacity="0.70"/>
<circle cx="329.14" cy="147.69" r="3.63" fill="#1E1E1A" opacity="0.90"/>
<circle cx="247.31" cy="159.62" r="2.78" fill="#1E1E1A" opacity="0.90"/>
<circle cx="354.93" cy="154.84" r="2.38" fill="#1E1E1A" opacity="0.90"/>
<circle cx="73.48" cy="166.08" r="2.86" fill="#1E1E1A" opacity="0.90"/>
<circle cx="146.60" cy="137.51" r="3.67" fill="#1E1E1A" opacity="0.90"/>
<circle cx="136.33" cy="144.23" r="3.63" fill="#1E1E1A" opacity="0.90"/>
<circle cx="92.94" cy="156.53" r="2.48" fill="#1E1E1A" opacity="0.90"/>
<circle cx="144.92" cy="169.24" r="3.60" fill="#1E1E1A" opacity="0.90"/>
<circle cx="107.38" cy="156.83" r="2.82" fill="#1E1E1A" opacity="0.90"/>
<circle cx="77.85" cy="178.79" r="3.07" fill="#1E1E1A" opacity="0.90"/>
<circle cx="90.34" cy="167.63" r="3.00" fill="#1E1E1A" opacity="0.90"/>
<circle cx="216.01" cy="149.83" r="3.01" fill="#1E1E1A" opacity="0.90"/>
<circle cx="386.47" cy="167.37" r="3.51" fill="#1E1E1A" opacity="0.90"/>
<circle cx="123.24" cy="151.87" r="2.70" fill="#1E1E1A" opacity="0.90"/>
<circle cx="319.63" cy="165.76" r="2.93" fill="#1E1E1A" opacity="0.90"/>
<circle cx="370.89" cy="164.83" r="2.22" fill="#1E1E1A" opacity="0.90"/>
<circle cx="304.99" cy="173.09" r="2.37" fill="#1E1E1A" opacity="0.90"/>
<circle cx="339.16" cy="161.76" r="3.44" fill="#1E1E1A" opacity="0.90"/>
<circle cx="261.44" cy="146.74" r="2.42" fill="#1E1E1A" opacity="0.90"/>
<circle cx="277.91" cy="170.50" r="2.54" fill="#1E1E1A" opacity="0.90"/>
<circle cx="241.40" cy="175.09" r="2.98" fill="#1E1E1A" opacity="0.90"/>
<circle cx="357.55" cy="167.17" r="3.35" fill="#1E1E1A" opacity="0.90"/>
<circle cx="49.92" cy="172.84" r="3.25" fill="#1E1E1A" opacity="0.90"/>
<circle cx="284.91" cy="141.95" r="2.41" fill="#1E1E1A" opacity="0.90"/>
<circle cx="313.96" cy="154.53" r="2.93" fill="#1E1E1A" opacity="0.90"/>
<circle cx="155.06" cy="157.41" r="3.47" fill="#1E1E1A" opacity="0.90"/>
<circle cx="286.48" cy="168.85" r="2.67" fill="#1E1E1A" opacity="0.90"/>
<circle cx="225.47" cy="161.47" r="2.70" fill="#1E1E1A" opacity="0.90"/>
<circle cx="221.19" cy="140.42" r="2.59" fill="#1E1E1A" opacity="0.90"/>
<circle cx="81.57" cy="162.94" r="2.63" fill="#1E1E1A" opacity="0.90"/>
<circle cx="45.57" cy="164.00" r="3.26" fill="#1E1E1A" opacity="0.90"/>
<circle cx="375.72" cy="158.89" r="2.81" fill="#1E1E1A" opacity="0.90"/>
<circle cx="198.91" cy="150.44" r="2.49" fill="#1E1E1A" opacity="0.90"/>
<circle cx="273.56" cy="150.71" r="2.82" fill="#1E1E1A" opacity="0.90"/>
<circle cx="364.98" cy="157.50" r="3.54" fill="#1E1E1A" opacity="0.90"/>
<circle cx="270.42" cy="165.34" r="3.01" fill="#1E1E1A" opacity="0.90"/>
<circle cx="202.53" cy="160.25" r="3.35" fill="#1E1E1A" opacity="0.90"/>
<circle cx="235.71" cy="146.36" r="2.48" fill="#1E1E1A" opacity="0.90"/>
<circle cx="256.28" cy="172.27" r="2.36" fill="#1E1E1A" opacity="0.90"/>
<circle cx="205.45" cy="167.98" r="2.23" fill="#1E1E1A" opacity="0.90"/>
<path d="M64.09 161.12 C66.62 160.32 74.20 157.85 79.26 156.33 C84.32 154.82 89.38 153.37 94.44 152.02 C99.50 150.66 104.56 149.39 109.62 148.21 C114.67 147.04 119.73 145.94 124.79 144.97 C129.85 144.00 134.91 143.05 139.97 142.41 C145.03 141.78 150.09 141.33 155.14 141.14 C160.20 140.95 165.26 141.20 170.32 141.27 C175.38 141.35 180.44 141.46 185.50 141.60 C190.56 141.74 195.61 141.91 200.67 142.11 C205.73 142.32 210.79 142.55 215.85 142.82 C220.91 143.09 225.97 143.39 231.03 143.72 C236.08 144.05 241.14 144.41 246.20 144.81 C251.26 145.20 256.32 145.63 261.38 146.09 C266.44 146.55 271.49 147.04 276.55 147.56 C281.61 148.09 289.20 148.95 291.73 149.23" fill="none" stroke="#FFFFFF" stroke-width="5.00" stroke-linejoin="round" stroke-linecap="round" opacity="0.22"/>
<path d="M56.74 191.94 C60.01 192.51 69.80 194.33 76.33 195.38 C82.85 196.43 89.38 197.40 95.91 198.25 C102.44 199.11 108.96 199.87 115.49 200.50 C122.02 201.12 128.54 201.67 135.07 202.01 C141.60 202.35 148.13 202.50 154.65 202.56 C161.18 202.62 167.71 202.48 174.24 202.35 C180.76 202.22 187.29 202.04 193.82 201.80 C200.35 201.57 206.87 201.27 213.40 200.92 C219.93 200.57 226.46 200.17 232.98 199.71 C239.51 199.24 246.04 198.73 252.57 198.15 C259.09 197.58 265.62 196.95 272.15 196.27 C278.68 195.58 285.20 194.84 291.73 194.04 C298.26 193.24 304.78 192.39 311.31 191.48 C317.84 190.57 324.37 189.61 330.89 188.59 C337.42 187.57 347.21 185.90 350.48 185.36" fill="none" stroke="#0B1A1E" stroke-width="7.00" stroke-linejoin="round" stroke-linecap="round" opacity="0.10"/>
</g>
<path d="M394.35 179.65 C394.26 179.67 394.04 179.72 393.80 179.77 C393.55 179.82 393.24 179.89 392.88 179.97 C392.51 180.04 392.08 180.13 391.59 180.24 C391.10 180.34 390.54 180.45 389.93 180.58 C389.32 180.71 388.65 180.85 387.92 181.00 C387.19 181.15 386.40 181.31 385.55 181.48 C384.70 181.66 383.80 181.84 382.83 182.04 C381.87 182.23 380.84 182.44 379.76 182.65 C378.68 182.87 377.55 183.09 376.36 183.33 C375.16 183.56 373.92 183.80 372.62 184.05 C371.31 184.30 369.96 184.56 368.55 184.83 C367.14 185.10 365.68 185.37 364.17 185.65 C362.65 185.93 361.09 186.22 359.48 186.51 C357.86 186.81 356.20 187.11 354.48 187.41 C352.77 187.71 351.01 188.02 349.20 188.33 C347.40 188.64 345.54 188.96 343.65 189.28 C341.75 189.59 339.81 189.91 337.82 190.24 C335.84 190.56 333.81 190.88 331.74 191.21 C329.67 191.53 327.56 191.86 325.42 192.19 C323.27 192.51 321.08 192.84 318.86 193.16 C316.64 193.48 314.38 193.81 312.09 194.13 C309.80 194.45 307.47 194.77 305.11 195.08 C302.76 195.40 300.37 195.71 297.95 196.02 C295.53 196.33 293.08 196.63 290.61 196.93 C288.13 197.23 285.63 197.53 283.11 197.82 C280.58 198.11 278.03 198.39 275.46 198.67 C272.89 198.94 270.29 199.22 267.68 199.48 C265.07 199.74 262.44 200.00 259.79 200.25 C257.15 200.50 254.48 200.74 251.80 200.97 C249.13 201.21 246.43 201.43 243.73 201.65 C241.03 201.87 238.32 202.07 235.60 202.27 C232.88 202.47 230.14 202.66 227.41 202.84 C224.68 203.02 221.93 203.19 219.19 203.35 C216.45 203.51 213.70 203.66 210.95 203.81 C208.21 203.95 205.46 204.08 202.72 204.20 C199.97 204.32 197.23 204.43 194.50 204.53 C191.76 204.63 189.03 204.73 186.31 204.81 C183.59 204.89 180.87 204.96 178.17 205.02 C175.47 205.08 172.78 205.13 170.10 205.18 C167.43 205.22 164.76 205.25 162.11 205.27 C159.47 205.30 156.83 205.32 154.22 205.31 C151.61 205.31 149.02 205.29 146.45 205.23 C143.88 205.17 141.32 205.07 138.80 204.96 C136.28 204.84 133.77 204.70 131.30 204.54 C128.83 204.38 126.38 204.20 123.96 204.00 C121.54 203.81 119.15 203.60 116.79 203.38 C114.44 203.15 112.11 202.92 109.82 202.67 C107.53 202.42 105.27 202.17 103.05 201.90 C100.82 201.64 98.64 201.36 96.49 201.08 C94.34 200.80 92.23 200.52 90.17 200.23 C88.10 199.94 86.07 199.64 84.09 199.34 C82.10 199.04 80.16 198.74 78.26 198.44 C76.36 198.14 74.51 197.84 72.70 197.54 C70.90 197.24 69.13 196.93 67.42 196.64 C65.71 196.34 64.04 196.04 62.43 195.75 C60.82 195.45 59.25 195.16 57.74 194.88 C56.23 194.60 54.76 194.32 53.36 194.04 C51.95 193.77 50.59 193.50 49.29 193.24 C47.99 192.98 46.74 192.73 45.55 192.49 C44.36 192.25 43.22 192.01 42.14 191.78 C41.06 191.56 40.04 191.34 39.08 191.14 C38.11 190.93 37.20 190.74 36.36 190.56 C35.51 190.37 34.72 190.20 33.99 190.04 C33.26 189.88 32.58 189.73 31.97 189.60 C31.36 189.46 30.81 189.34 30.32 189.23 C29.83 189.12 29.40 189.02 29.03 188.94 C28.66 188.86 28.35 188.79 28.11 188.73 C27.86 188.68 27.68 188.63 27.55 188.61 C27.43 188.58 28.07 189.29 27.37 188.56 C26.67 187.84 24.24 186.06 23.34 184.27 C22.45 182.48 22.00 179.97 22.00 177.82 C22.00 175.68 22.45 173.17 23.34 171.38 C24.24 169.59 26.67 167.81 27.37 167.08 C28.07 166.36 27.43 167.06 27.55 167.01 C27.68 166.96 27.86 166.89 28.11 166.79 C28.35 166.69 28.66 166.57 29.03 166.43 C29.40 166.28 29.83 166.11 30.32 165.92 C30.81 165.73 31.36 165.51 31.97 165.27 C32.58 165.04 33.26 164.77 33.99 164.49 C34.72 164.21 35.51 163.91 36.36 163.58 C37.20 163.26 38.11 162.91 39.08 162.55 C40.04 162.19 41.06 161.80 42.14 161.40 C43.22 161.00 44.36 160.58 45.55 160.15 C46.74 159.72 47.99 159.26 49.29 158.80 C50.59 158.33 51.95 157.85 53.36 157.36 C54.76 156.86 56.23 156.36 57.74 155.84 C59.25 155.32 60.82 154.79 62.43 154.25 C64.04 153.71 65.71 153.17 67.42 152.61 C69.13 152.06 70.90 151.50 72.70 150.93 C74.51 150.36 76.36 149.79 78.26 149.22 C80.16 148.65 82.10 148.07 84.09 147.49 C86.07 146.92 88.10 146.34 90.17 145.77 C92.23 145.19 94.34 144.62 96.49 144.06 C98.64 143.49 100.82 142.93 103.05 142.38 C105.27 141.82 107.53 141.28 109.82 140.75 C112.11 140.21 114.44 139.69 116.79 139.18 C119.15 138.68 121.54 138.18 123.96 137.71 C126.38 137.24 128.83 136.79 131.30 136.36 C133.77 135.94 136.28 135.53 138.80 135.16 C141.32 134.80 143.88 134.43 146.45 134.19 C149.02 133.94 151.61 133.79 154.22 133.72 C156.83 133.65 159.47 133.74 162.11 133.76 C164.76 133.78 167.43 133.81 170.10 133.85 C172.78 133.89 175.47 133.94 178.17 134.00 C180.87 134.06 183.59 134.12 186.31 134.20 C189.03 134.28 191.76 134.37 194.50 134.46 C197.23 134.56 199.97 134.66 202.72 134.78 C205.46 134.89 208.21 135.02 210.95 135.15 C213.70 135.29 216.45 135.43 219.19 135.58 C221.93 135.74 224.68 135.90 227.41 136.07 C230.14 136.24 232.88 136.42 235.60 136.61 C238.32 136.80 241.03 137.00 243.73 137.20 C246.43 137.41 249.13 137.62 251.80 137.84 C254.48 138.06 257.15 138.29 259.79 138.53 C262.44 138.77 265.07 139.01 267.68 139.26 C270.29 139.51 272.89 139.77 275.46 140.03 C278.03 140.30 280.58 140.57 283.11 140.84 C285.63 141.12 288.13 141.40 290.61 141.68 C293.08 141.97 295.53 142.26 297.95 142.55 C300.37 142.84 302.76 143.14 305.11 143.44 C307.47 143.74 309.80 144.04 312.09 144.35 C314.38 144.65 316.64 144.96 318.86 145.27 C321.08 145.57 323.27 145.88 325.42 146.19 C327.56 146.50 329.67 146.81 331.74 147.12 C333.81 147.43 335.84 147.74 337.82 148.04 C339.81 148.35 341.75 148.65 343.65 148.96 C345.54 149.26 347.40 149.56 349.20 149.85 C351.01 150.15 352.77 150.44 354.48 150.73 C356.20 151.02 357.86 151.30 359.48 151.58 C361.09 151.86 362.65 152.13 364.17 152.40 C365.68 152.66 367.14 152.93 368.55 153.18 C369.96 153.43 371.31 153.68 372.62 153.92 C373.92 154.16 375.16 154.39 376.36 154.61 C377.55 154.83 378.68 155.04 379.76 155.25 C380.84 155.45 381.87 155.65 382.83 155.83 C383.80 156.02 384.70 156.19 385.55 156.36 C386.40 156.52 387.19 156.68 387.92 156.82 C388.65 156.96 389.32 157.10 389.93 157.22 C390.54 157.34 391.10 157.45 391.59 157.54 C392.08 157.64 392.51 157.73 392.88 157.80 C393.24 157.88 393.55 157.94 393.80 157.99 C394.04 158.04 394.26 158.08 394.35 158.10" fill="none" stroke="#0B1A1E" stroke-width="3.00" stroke-linejoin="round" stroke-linecap="round"/>
<path d="M121.00 142.81 C123.38 146.48 133.79 157.71 135.32 164.81 C136.85 171.92 133.48 179.37 130.18 185.44 C126.87 191.51 117.94 198.62 115.49 201.26" fill="none" stroke="#0B1A1E" stroke-width="2.00" stroke-linejoin="round" stroke-linecap="round" opacity="0.55"/>
<path d="M22.54 177.82 C25.08 178.11 32.72 179.57 37.80 179.52 C42.89 179.48 50.53 177.88 53.07 177.55" fill="none" stroke="#0B1A1E" stroke-width="2.40" stroke-linejoin="round" stroke-linecap="round"/>
<path d="M121.33 183.47 C126.43 182.61 140.18 186.85 147.99 190.51 C155.81 194.18 168.23 205.47 168.23 205.47 C168.23 205.47 154.49 205.96 146.01 204.33 C137.53 202.70 121.47 199.17 117.36 195.69 C113.24 192.22 116.22 184.33 121.33 183.47 Z" fill="#A79E89" stroke="#0B1A1E" stroke-width="2.40" stroke-linejoin="round"/>
<path d="M122.83 190.72 C129.98 192.41 158.56 199.17 165.71 200.86" fill="none" stroke="#0B1A1E" stroke-width="1.00" stroke-linejoin="round" opacity="0.30"/>
<path d="M122.83 190.72 C129.79 192.98 157.64 202.02 164.60 204.29" fill="none" stroke="#0B1A1E" stroke-width="1.00" stroke-linejoin="round" opacity="0.30"/>
<path d="M122.83 190.72 C129.61 193.55 156.71 204.88 163.49 207.71" fill="none" stroke="#0B1A1E" stroke-width="1.00" stroke-linejoin="round" opacity="0.30"/>
<path d="M38.38 178.31 C41.10 179.04 49.24 181.11 54.67 182.66 C60.10 184.20 65.53 185.85 70.96 187.58 C76.39 189.32 81.81 191.15 87.24 193.08 C92.67 195.01 98.10 197.04 103.53 199.16 C108.96 201.28 114.39 203.49 119.82 205.81 C125.24 208.12 130.67 210.53 136.10 213.03 C141.53 215.54 149.67 219.53 152.39 220.83" fill="none" stroke="#0B1A1E" stroke-width="2.20" stroke-linejoin="round" stroke-linecap="round"/>
<path d="M45.73 189.28 C45.64 190.25 45.39 193.14 45.23 195.11 C45.06 197.08 44.89 199.08 44.72 201.11 C44.55 203.13 44.39 205.18 44.22 207.27 C44.05 209.35 43.88 211.45 43.72 213.59 C43.55 215.73 43.38 217.89 43.21 220.08 C43.05 222.27 42.88 224.49 42.71 226.73 C42.54 228.98 42.29 232.42 42.21 233.55" fill="none" stroke="#0B1A1E" stroke-width="1.80" stroke-linejoin="round" stroke-linecap="round"/>
<path d="M53.07 192.16 C53.28 192.93 53.89 195.22 54.29 196.79 C54.70 198.35 55.11 199.94 55.52 201.55 C55.92 203.16 56.33 204.79 56.74 206.45 C57.14 208.10 57.55 209.78 57.96 211.48 C58.37 213.18 58.77 214.90 59.18 216.65 C59.59 218.39 60.00 220.16 60.40 221.95 C60.81 223.74 61.42 226.48 61.62 227.38" fill="none" stroke="#0B1A1E" stroke-width="1.80" stroke-linejoin="round" stroke-linecap="round"/>
<circle cx="71.43" cy="162.37" r="5.51" fill="#C9B98A" stroke="#0B1A1E" stroke-width="2.20" stroke-linejoin="round"/>
<circle cx="71.43" cy="162.37" r="3.30" fill="#0B1A1E"/>
<circle cx="70.05" cy="160.83" r="1.10" fill="#FFFFFF" opacity="0.95"/>
</svg>