<svg xmlns="http://www.w3.org/2000/svg" viewBox="0 0 512 320" width="512" height="320">
<title>Sororoca</title>
<defs>
<linearGradient id="gBody" x1="0" y1="0" x2="0" y2="1"><stop offset="0" stop-color="#3A5C72"/><stop offset="0.42" stop-color="#C9D4DA"/><stop offset="0.78" stop-color="#F4F5F2"/><stop offset="1" stop-color="#F4F5F2"/></linearGradient>
<pattern id="pScale" width="16.1" height="13.0" patternUnits="userSpaceOnUse"><path d="M4.0 -6.5 A4.0 6.5 0 0 1 4.0 6.5 M4.0 6.5 A4.0 6.5 0 0 1 4.0 19.5 M12.1 0.0 A4.0 6.5 0 0 1 12.1 13.0 " fill="none" stroke="#0B1A1E" stroke-width="1.1"/></pattern>
<clipPath id="cBody"><path d="M382.78 164.75 C382.75 166.34 382.72 164.75 382.60 164.76 C382.48 164.77 382.30 164.78 382.06 164.79 C381.82 164.81 381.53 164.84 381.17 164.87 C380.81 164.91 380.39 164.95 379.91 165.00 C379.43 165.05 378.90 165.12 378.30 165.19 C377.71 165.27 377.05 165.35 376.34 165.45 C375.63 165.55 374.86 165.66 374.04 165.79 C373.21 165.91 372.33 166.05 371.39 166.20 C370.45 166.35 369.45 166.52 368.40 166.70 C367.35 166.87 366.25 167.07 365.09 167.27 C363.93 167.48 362.71 167.70 361.45 167.93 C360.18 168.16 358.86 168.40 357.49 168.66 C356.12 168.92 354.69 169.19 353.22 169.48 C351.75 169.76 350.23 170.05 348.66 170.36 C347.09 170.67 345.46 170.99 343.80 171.31 C342.13 171.64 340.42 171.98 338.66 172.33 C336.90 172.67 335.10 173.03 333.25 173.40 C331.40 173.76 329.51 174.13 327.58 174.51 C325.65 174.89 323.67 175.27 321.66 175.66 C319.65 176.05 317.59 176.45 315.50 176.84 C313.41 177.24 311.29 177.64 309.12 178.04 C306.96 178.45 304.76 178.85 302.53 179.25 C300.30 179.66 298.04 180.06 295.74 180.46 C293.45 180.86 291.12 181.26 288.77 181.66 C286.41 182.05 284.03 182.45 281.62 182.83 C279.21 183.22 276.78 183.60 274.32 183.98 C271.86 184.35 269.38 184.72 266.88 185.08 C264.38 185.44 261.85 185.79 259.31 186.13 C256.77 186.47 254.20 186.80 251.63 187.12 C249.05 187.44 246.46 187.75 243.85 188.04 C241.25 188.34 238.63 188.62 236.00 188.89 C233.37 189.16 230.72 189.42 228.08 189.66 C225.43 189.90 222.77 190.13 220.11 190.34 C217.45 190.55 214.78 190.75 212.11 190.93 C209.44 191.11 206.76 191.27 204.09 191.42 C201.42 191.57 198.74 191.70 196.07 191.82 C193.40 191.93 190.73 192.03 188.07 192.11 C185.41 192.19 182.75 192.26 180.10 192.31 C177.45 192.36 174.81 192.39 172.18 192.40 C169.55 192.42 166.93 192.42 164.33 192.38 C161.72 192.33 159.13 192.25 156.55 192.14 C153.97 192.04 151.41 191.90 148.87 191.75 C146.33 191.59 143.80 191.41 141.30 191.21 C138.80 191.01 136.32 190.79 133.86 190.55 C131.40 190.31 128.96 190.05 126.56 189.78 C124.15 189.51 121.77 189.21 119.41 188.91 C117.06 188.61 114.73 188.29 112.44 187.96 C110.14 187.63 107.88 187.29 105.65 186.94 C103.42 186.59 101.22 186.23 99.06 185.86 C96.89 185.50 94.76 185.12 92.68 184.74 C90.59 184.36 88.53 183.97 86.52 183.58 C84.51 183.19 82.53 182.79 80.60 182.39 C78.67 182.00 76.78 181.60 74.93 181.20 C73.08 180.80 71.28 180.40 69.52 180.00 C67.76 179.60 66.05 179.21 64.38 178.82 C62.71 178.42 61.09 178.03 59.52 177.65 C57.95 177.27 56.43 176.89 54.96 176.52 C53.48 176.15 52.06 175.78 50.69 175.42 C49.32 175.07 48.00 174.72 46.73 174.38 C45.47 174.04 44.25 173.71 43.09 173.40 C41.93 173.08 40.83 172.78 39.78 172.48 C38.72 172.19 37.73 171.91 36.79 171.64 C35.85 171.37 34.97 171.12 34.14 170.88 C33.32 170.64 32.55 170.42 31.83 170.21 C31.12 170.00 30.47 169.81 29.88 169.64 C29.28 169.46 28.74 169.30 28.27 169.16 C27.79 169.01 27.37 168.89 27.01 168.78 C26.65 168.67 26.35 168.58 26.11 168.51 C25.88 168.44 25.70 168.38 25.58 168.35 C25.46 168.31 25.85 168.87 25.40 168.29 C24.94 167.72 23.41 166.31 22.85 164.90 C22.28 163.48 22.00 161.50 22.00 159.80 C22.00 158.11 22.28 156.13 22.85 154.71 C23.41 153.30 24.94 151.89 25.40 151.32 C25.85 150.74 25.46 151.30 25.58 151.26 C25.70 151.22 25.88 151.16 26.11 151.09 C26.35 151.01 26.65 150.92 27.01 150.80 C27.37 150.69 27.79 150.56 28.27 150.41 C28.74 150.26 29.28 150.09 29.88 149.90 C30.47 149.72 31.12 149.51 31.83 149.30 C32.55 149.08 33.32 148.84 34.14 148.59 C34.97 148.34 35.85 148.07 36.79 147.79 C37.73 147.50 38.72 147.21 39.78 146.89 C40.83 146.58 41.93 146.26 43.09 145.92 C44.25 145.59 45.47 145.24 46.73 144.88 C48.00 144.52 49.32 144.14 50.69 143.76 C52.06 143.38 53.48 142.99 54.96 142.59 C56.43 142.19 57.95 141.78 59.52 141.37 C61.09 140.96 62.71 140.54 64.38 140.11 C66.05 139.69 67.76 139.25 69.52 138.82 C71.28 138.39 73.08 137.95 74.93 137.52 C76.78 137.08 78.67 136.64 80.60 136.20 C82.53 135.77 84.51 135.33 86.52 134.89 C88.53 134.46 90.59 134.03 92.68 133.60 C94.76 133.18 96.89 132.75 99.06 132.34 C101.22 131.92 103.42 131.51 105.65 131.11 C107.88 130.72 110.14 130.32 112.44 129.95 C114.73 129.57 117.06 129.20 119.41 128.84 C121.77 128.49 124.15 128.15 126.56 127.82 C128.96 127.50 131.40 127.19 133.86 126.90 C136.32 126.61 138.80 126.34 141.30 126.09 C143.80 125.85 146.33 125.62 148.87 125.42 C151.41 125.22 153.97 125.04 156.55 124.90 C159.13 124.76 161.72 124.64 164.33 124.57 C166.93 124.51 169.55 124.51 172.18 124.52 C174.81 124.53 177.45 124.58 180.10 124.63 C182.75 124.69 185.41 124.76 188.07 124.85 C190.73 124.94 193.40 125.05 196.07 125.18 C198.74 125.31 201.42 125.45 204.09 125.62 C206.76 125.78 209.44 125.96 212.11 126.16 C214.78 126.36 217.45 126.58 220.11 126.82 C222.77 127.05 225.43 127.31 228.08 127.57 C230.72 127.84 233.37 128.13 236.00 128.43 C238.63 128.73 241.25 129.04 243.85 129.37 C246.46 129.70 249.05 130.04 251.63 130.40 C254.20 130.75 256.77 131.12 259.31 131.50 C261.85 131.88 264.38 132.27 266.88 132.67 C269.38 133.06 271.86 133.47 274.32 133.89 C276.78 134.30 279.21 134.73 281.62 135.16 C284.03 135.59 286.41 136.03 288.77 136.46 C291.12 136.90 293.45 137.35 295.74 137.79 C298.04 138.24 300.30 138.69 302.53 139.14 C304.76 139.58 306.96 140.03 309.12 140.48 C311.29 140.93 313.41 141.37 315.50 141.81 C317.59 142.25 319.65 142.69 321.66 143.12 C323.67 143.56 325.65 143.99 327.58 144.41 C329.51 144.83 331.40 145.24 333.25 145.64 C335.10 146.05 336.90 146.45 338.66 146.83 C340.42 147.22 342.13 147.59 343.80 147.96 C345.46 148.32 347.09 148.68 348.66 149.02 C350.23 149.36 351.75 149.69 353.22 150.00 C354.69 150.31 356.12 150.62 357.49 150.90 C358.86 151.19 360.18 151.46 361.45 151.72 C362.71 151.98 363.93 152.22 365.09 152.45 C366.25 152.68 367.35 152.89 368.40 153.09 C369.45 153.29 370.45 153.47 371.39 153.64 C372.33 153.80 373.21 153.96 374.04 154.10 C374.86 154.23 375.63 154.36 376.34 154.47 C377.05 154.58 377.71 154.67 378.30 154.76 C378.90 154.84 379.43 154.91 379.91 154.97 C380.39 155.03 380.81 155.08 381.17 155.12 C381.53 155.15 381.82 155.18 382.06 155.20 C382.30 155.22 382.48 155.23 382.60 155.24 C382.72 155.25 382.75 153.66 382.78 155.25 C382.81 156.83 382.81 163.17 382.78 164.75 Z"/></clipPath>
</defs>
<path d="M370.27 155.25 C380.40 148.03 411.08 134.88 431.03 121.47 C450.99 108.07 490.00 74.83 490.00 74.83 C490.00 74.83 469.34 124.75 457.19 138.95 C445.04 153.14 417.09 160.00 417.09 160.00 C417.09 160.00 445.04 166.86 457.19 181.05 C469.34 195.25 490.00 245.17 490.00 245.17 C490.00 245.17 450.99 211.93 431.03 198.53 C411.08 185.12 380.40 171.97 370.27 164.75 C360.15 157.54 360.15 162.46 370.27 155.25 Z" fill="#8EA2AE" stroke="#0B1A1E" stroke-width="2.40" stroke-linejoin="round"/>
<path d="M373.85 160.00 C382.43 154.22 416.74 131.11 425.31 125.33" fill="none" stroke="#0B1A1E" stroke-width="1.00" stroke-linejoin="round" opacity="0.25"/>
<path d="M373.85 160.00 C391.27 147.23 460.96 96.13 478.38 83.35" fill="none" stroke="#0B1A1E" stroke-width="1.00" stroke-linejoin="round" opacity="0.25"/>
<path d="M373.85 160.00 C386.35 156.84 436.36 144.21 448.86 141.05" fill="none" stroke="#0B1A1E" stroke-width="1.00" stroke-linejoin="round" opacity="0.25"/>
<path d="M373.85 160.00 C380.34 160.00 406.28 160.00 412.77 160.00" fill="none" stroke="#0B1A1E" stroke-width="1.00" stroke-linejoin="round" opacity="0.25"/>
<path d="M373.85 160.00 C386.35 163.16 436.36 175.79 448.86 178.95" fill="none" stroke="#0B1A1E" stroke-width="1.00" stroke-linejoin="round" opacity="0.25"/>
<path d="M373.85 160.00 C391.27 172.77 460.96 223.87 478.38 236.65" fill="none" stroke="#0B1A1E" stroke-width="1.00" stroke-linejoin="round" opacity="0.25"/>
<path d="M373.85 160.00 C382.43 165.78 416.74 188.89 425.31 194.67" fill="none" stroke="#0B1A1E" stroke-width="1.00" stroke-linejoin="round" opacity="0.25"/>
<path d="M114.74 129.57 C115.97 125.24 122.11 110.76 122.11 110.76 C122.11 110.76 123.33 116.72 124.67 116.04 C126.01 115.36 130.15 106.70 130.15 106.70 C130.15 106.70 131.29 113.09 132.52 113.00 C133.75 112.90 137.52 106.13 137.52 106.13 C137.52 106.13 138.69 112.43 139.91 112.37 C141.14 112.31 144.87 105.78 144.87 105.78 C144.87 105.78 146.07 111.96 147.29 111.94 C148.52 111.91 152.21 105.63 152.21 105.63 C152.21 105.63 153.45 111.69 154.67 111.70 C155.89 111.71 159.54 105.71 159.54 105.71 C159.54 105.71 160.81 111.62 162.03 111.67 C163.25 111.72 166.86 106.01 166.86 106.01 C166.86 106.01 168.17 111.78 169.39 111.88 C170.61 111.97 174.17 106.60 174.17 106.60 C174.17 106.60 175.53 112.23 176.74 112.36 C177.96 112.49 181.47 107.40 181.47 107.40 C181.47 107.40 182.87 112.82 184.09 112.98 C185.31 113.13 188.76 108.34 188.76 108.34 C188.76 108.34 190.22 113.54 191.43 113.72 C192.65 113.90 196.05 109.41 196.05 109.41 C196.05 109.41 197.56 114.38 198.77 114.58 C199.98 114.78 203.33 110.60 203.33 110.60 C203.33 110.60 205.97 113.05 206.10 115.55 C206.23 118.06 204.42 122.75 204.09 125.62 C203.75 128.49 206.57 131.69 204.09 132.76 C201.61 133.83 194.16 132.22 189.20 132.04 C184.23 131.86 179.27 131.71 174.31 131.69 C169.34 131.67 164.38 131.69 159.42 131.90 C154.45 132.11 149.49 132.49 144.52 132.93 C139.56 133.38 134.60 133.94 129.63 134.57 C124.67 135.20 117.22 137.55 114.74 136.72 C112.26 135.88 113.51 133.90 114.74 129.57 Z" fill="#8EA2AE" stroke="#0B1A1E" stroke-width="2.40" stroke-linejoin="round"/>
<path d="M122.86 126.55 C123.31 124.75 125.08 117.54 125.52 115.74" fill="none" stroke="#0B1A1E" stroke-width="1.00" stroke-linejoin="round" opacity="0.28"/>
<path d="M130.99 125.46 C131.52 123.25 133.64 114.39 134.17 112.17" fill="none" stroke="#0B1A1E" stroke-width="1.00" stroke-linejoin="round" opacity="0.28"/>
<path d="M139.11 124.53 C139.67 122.20 141.89 112.86 142.44 110.52" fill="none" stroke="#0B1A1E" stroke-width="1.00" stroke-linejoin="round" opacity="0.28"/>
<path d="M147.23 123.76 C147.81 121.33 150.11 111.60 150.69 109.17" fill="none" stroke="#0B1A1E" stroke-width="1.00" stroke-linejoin="round" opacity="0.28"/>
<path d="M155.35 123.18 C155.95 120.67 158.32 110.63 158.91 108.12" fill="none" stroke="#0B1A1E" stroke-width="1.00" stroke-linejoin="round" opacity="0.28"/>
<path d="M163.48 122.81 C164.05 120.40 166.34 110.76 166.91 108.34" fill="none" stroke="#0B1A1E" stroke-width="1.00" stroke-linejoin="round" opacity="0.28"/>
<path d="M171.60 122.73 C172.12 120.58 174.19 111.96 174.71 109.80" fill="none" stroke="#0B1A1E" stroke-width="1.00" stroke-linejoin="round" opacity="0.28"/>
<path d="M179.72 122.84 C180.19 120.93 182.05 113.31 182.51 111.40" fill="none" stroke="#0B1A1E" stroke-width="1.00" stroke-linejoin="round" opacity="0.28"/>
<path d="M187.84 123.05 C188.26 121.39 189.92 114.73 190.33 113.07" fill="none" stroke="#0B1A1E" stroke-width="1.00" stroke-linejoin="round" opacity="0.28"/>
<path d="M195.97 123.39 C196.33 121.95 197.79 116.22 198.16 114.79" fill="none" stroke="#0B1A1E" stroke-width="1.00" stroke-linejoin="round" opacity="0.28"/>
<path d="M221.96 126.98 C223.94 121.67 233.86 102.26 233.86 102.26 C233.86 102.26 234.33 114.07 236.64 117.58 C238.96 121.09 243.37 121.71 247.74 123.33 C252.10 124.95 260.59 125.88 262.85 127.29 C265.10 128.70 261.53 129.85 261.27 131.79 C261.01 133.73 262.36 137.91 261.27 138.94 C260.18 139.97 256.90 138.29 254.72 137.98 C252.54 137.67 250.35 137.37 248.17 137.08 C245.98 136.79 243.80 136.51 241.62 136.24 C239.43 135.97 237.25 135.71 235.06 135.47 C232.88 135.22 230.69 134.99 228.51 134.77 C226.33 134.54 223.05 135.43 221.96 134.13 C220.87 132.84 219.98 132.30 221.96 126.98 Z" fill="#8EA2AE" stroke="#0B1A1E" stroke-width="2.40" stroke-linejoin="round"/>
<path d="M231.79 126.17 C232.49 124.57 235.30 118.15 236.00 116.55" fill="none" stroke="#0B1A1E" stroke-width="1.00" stroke-linejoin="round" opacity="0.28"/>
<path d="M241.62 127.30 C242.04 126.47 243.72 123.11 244.14 122.27" fill="none" stroke="#0B1A1E" stroke-width="1.00" stroke-linejoin="round" opacity="0.28"/>
<path d="M251.44 128.58 C251.75 128.04 252.99 125.87 253.30 125.33" fill="none" stroke="#0B1A1E" stroke-width="1.00" stroke-linejoin="round" opacity="0.28"/>
<path d="M232.68 189.22 C234.46 193.94 243.33 210.35 243.33 210.35 C243.33 210.35 244.37 200.14 246.84 197.07 C249.31 193.99 253.73 193.37 258.14 191.89 C262.56 190.41 271.04 189.45 273.34 188.19 C275.65 186.93 272.22 186.16 271.99 184.33 C271.77 182.49 273.09 178.21 271.99 177.18 C270.90 176.15 267.63 177.82 265.44 178.13 C263.26 178.44 261.07 178.74 258.89 179.04 C256.70 179.33 254.52 179.61 252.34 179.88 C250.15 180.16 247.97 180.42 245.78 180.67 C243.60 180.93 241.42 181.17 239.23 181.40 C237.05 181.64 233.77 180.77 232.68 182.08 C231.59 183.38 230.91 184.51 232.68 189.22 Z" fill="#8EA2AE" stroke="#0B1A1E" stroke-width="2.40" stroke-linejoin="round"/>
<path d="M242.51 189.98 C243.11 191.31 245.52 196.65 246.12 197.98" fill="none" stroke="#0B1A1E" stroke-width="1.00" stroke-linejoin="round" opacity="0.28"/>
<path d="M252.34 188.82 C252.70 189.49 254.14 192.20 254.50 192.88" fill="none" stroke="#0B1A1E" stroke-width="1.00" stroke-linejoin="round" opacity="0.28"/>
<path d="M262.16 187.53 C262.43 187.95 263.49 189.64 263.76 190.06" fill="none" stroke="#0B1A1E" stroke-width="1.00" stroke-linejoin="round" opacity="0.28"/>
<path d="M151.30 183.19 C154.22 183.94 158.41 189.91 160.07 193.84 C161.73 197.77 161.26 206.75 161.26 206.75 C161.26 206.75 152.37 202.79 149.25 199.89 C146.13 196.99 142.17 192.12 142.52 189.34 C142.86 186.55 148.37 182.44 151.30 183.19 Z" fill="#8EA2AE" stroke="#0B1A1E" stroke-width="2.40" stroke-linejoin="round"/>
<path d="M382.78 164.75 C382.75 166.34 382.72 164.75 382.60 164.76 C382.48 164.77 382.30 164.78 382.06 164.79 C381.82 164.81 381.53 164.84 381.17 164.87 C380.81 164.91 380.39 164.95 379.91 165.00 C379.43 165.05 378.90 165.12 378.30 165.19 C377.71 165.27 377.05 165.35 376.34 165.45 C375.63 165.55 374.86 165.66 374.04 165.79 C373.21 165.91 372.33 166.05 371.39 166.20 C370.45 166.35 369.45 166.52 368.40 166.70 C367.35 166.87 366.25 167.07 365.09 167.27 C363.93 167.48 362.71 167.70 361.45 167.93 C360.18 168.16 358.86 168.40 357.49 168.66 C356.12 168.92 354.69 169.19 353.22 169.48 C351.75 169.76 350.23 170.05 348.66 170.36 C347.09 170.67 345.46 170.99 343.80 171.31 C342.13 171.64 340.42 171.98 338.66 172.33 C336.90 172.67 335.10 173.03 333.25 173.40 C331.40 173.76 329.51 174.13 327.58 174.51 C325.65 174.89 323.67 175.27 321.66 175.66 C319.65 176.05 317.59 176.45 315.50 176.84 C313.41 177.24 311.29 177.64 309.12 178.04 C306.96 178.45 304.76 178.85 302.53 179.25 C300.30 179.66 298.04 180.06 295.74 180.46 C293.45 180.86 291.12 181.26 288.77 181.66 C286.41 182.05 284.03 182.45 281.62 182.83 C279.21 183.22 276.78 183.60 274.32 183.98 C271.86 184.35 269.38 184.72 266.88 185.08 C264.38 185.44 261.85 185.79 259.31 186.13 C256.77 186.47 254.20 186.80 251.63 187.12 C249.05 187.44 246.46 187.75 243.85 188.04 C241.25 188.34 238.63 188.62 236.00 188.89 C233.37 189.16 230.72 189.42 228.08 189.66 C225.43 189.90 222.77 190.13 220.11 190.34 C217.45 190.55 214.78 190.75 212.11 190.93 C209.44 191.11 206.76 191.27 204.09 191.42 C201.42 191.57 198.74 191.70 196.07 191.82 C193.40 191.93 190.73 192.03 188.07 192.11 C185.41 192.19 182.75 192.26 180.10 192.31 C177.45 192.36 174.81 192.39 172.18 192.40 C169.55 192.42 166.93 192.42 164.33 192.38 C161.72 192.33 159.13 192.25 156.55 192.14 C153.97 192.04 151.41 191.90 148.87 191.75 C146.33 191.59 143.80 191.41 141.30 191.21 C138.80 191.01 136.32 190.79 133.86 190.55 C131.40 190.31 128.96 190.05 126.56 189.78 C124.15 189.51 121.77 189.21 119.41 188.91 C117.06 188.61 114.73 188.29 112.44 187.96 C110.14 187.63 107.88 187.29 105.65 186.94 C103.42 186.59 101.22 186.23 99.06 185.86 C96.89 185.50 94.76 185.12 92.68 184.74 C90.59 184.36 88.53 183.97 86.52 183.58 C84.51 183.19 82.53 182.79 80.60 182.39 C78.67 182.00 76.78 181.60 74.93 181.20 C73.08 180.80 71.28 180.40 69.52 180.00 C67.76 179.60 66.05 179.21 64.38 178.82 C62.71 178.42 61.09 178.03 59.52 177.65 C57.95 177.27 56.43 176.89 54.96 176.52 C53.48 176.15 52.06 175.78 50.69 175.42 C49.32 175.07 48.00 174.72 46.73 174.38 C45.47 174.04 44.25 173.71 43.09 173.40 C41.93 173.08 40.83 172.78 39.78 172.48 C38.72 172.19 37.73 171.91 36.79 171.64 C35.85 171.37 34.97 171.12 34.14 170.88 C33.32 170.64 32.55 170.42 31.83 170.21 C31.12 170.00 30.47 169.81 29.88 169.64 C29.28 169.46 28.74 169.30 28.27 169.16 C27.79 169.01 27.37 168.89 27.01 168.78 C26.65 168.67 26.35 168.58 26.11 168.51 C25.88 168.44 25.70 168.38 25.58 168.35 C25.46 168.31 25.85 168.87 25.40 168.29 C24.94 167.72 23.41 166.31 22.85 164.90 C22.28 163.48 22.00 161.50 22.00 159.80 C22.00 158.11 22.28 156.13 22.85 154.71 C23.41 153.30 24.94 151.89 25.40 151.32 C25.85 150.74 25.46 151.30 25.58 151.26 C25.70 151.22 25.88 151.16 26.11 151.09 C26.35 151.01 26.65 150.92 27.01 150.80 C27.37 150.69 27.79 150.56 28.27 150.41 C28.74 150.26 29.28 150.09 29.88 149.90 C30.47 149.72 31.12 149.51 31.83 149.30 C32.55 149.08 33.32 148.84 34.14 148.59 C34.97 148.34 35.85 148.07 36.79 147.79 C37.73 147.50 38.72 147.21 39.78 146.89 C40.83 146.58 41.93 146.26 43.09 145.92 C44.25 145.59 45.47 145.24 46.73 144.88 C48.00 144.52 49.32 144.14 50.69 143.76 C52.06 143.38 53.48 142.99 54.96 142.59 C56.43 142.19 57.95 141.78 59.52 141.37 C61.09 140.96 62.71 140.54 64.38 140.11 C66.05 139.69 67.76 139.25 69.52 138.82 C71.28 138.39 73.08 137.95 74.93 137.52 C76.78 137.08 78.67 136.64 80.60 136.20 C82.53 135.77 84.51 135.33 86.52 134.89 C88.53 134.46 90.59 134.03 92.68 133.60 C94.76 133.18 96.89 132.75 99.06 132.34 C101.22 131.92 103.42 131.51 105.65 131.11 C107.88 130.72 110.14 130.32 112.44 129.95 C114.73 129.57 117.06 129.20 119.41 128.84 C121.77 128.49 124.15 128.15 126.56 127.82 C128.96 127.50 131.40 127.19 133.86 126.90 C136.32 126.61 138.80 126.34 141.30 126.09 C143.80 125.85 146.33 125.62 148.87 125.42 C151.41 125.22 153.97 125.04 156.55 124.90 C159.13 124.76 161.72 124.64 164.33 124.57 C166.93 124.51 169.55 124.51 172.18 124.52 C174.81 124.53 177.45 124.58 180.10 124.63 C182.75 124.69 185.41 124.76 188.07 124.85 C190.73 124.94 193.40 125.05 196.07 125.18 C198.74 125.31 201.42 125.45 204.09 125.62 C206.76 125.78 209.44 125.96 212.11 126.16 C214.78 126.36 217.45 126.58 220.11 126.82 C222.77 127.05 225.43 127.31 228.08 127.57 C230.72 127.84 233.37 128.13 236.00 128.43 C238.63 128.73 241.25 129.04 243.85 129.37 C246.46 129.70 249.05 130.04 251.63 130.40 C254.20 130.75 256.77 131.12 259.31 131.50 C261.85 131.88 264.38 132.27 266.88 132.67 C269.38 133.06 271.86 133.47 274.32 133.89 C276.78 134.30 279.21 134.73 281.62 135.16 C284.03 135.59 286.41 136.03 288.77 136.46 C291.12 136.90 293.45 137.35 295.74 137.79 C298.04 138.24 300.30 138.69 302.53 139.14 C304.76 139.58 306.96 140.03 309.12 140.48 C311.29 140.93 313.41 141.37 315.50 141.81 C317.59 142.25 319.65 142.69 321.66 143.12 C323.67 143.56 325.65 143.99 327.58 144.41 C329.51 144.83 331.40 145.24 333.25 145.64 C335.10 146.05 336.90 146.45 338.66 146.83 C340.42 147.22 342.13 147.59 343.80 147.96 C345.46 148.32 347.09 148.68 348.66 149.02 C350.23 149.36 351.75 149.69 353.22 150.00 C354.69 150.31 356.12 150.62 357.49 150.90 C358.86 151.19 360.18 151.46 361.45 151.72 C362.71 151.98 363.93 152.22 365.09 152.45 C366.25 152.68 367.35 152.89 368.40 153.09 C369.45 153.29 370.45 153.47 371.39 153.64 C372.33 153.80 373.21 153.96 374.04 154.10 C374.86 154.23 375.63 154.36 376.34 154.47 C377.05 154.58 377.71 154.67 378.30 154.76 C378.90 154.84 379.43 154.91 379.91 154.97 C380.39 155.03 380.81 155.08 381.17 155.12 C381.53 155.15 381.82 155.18 382.06 155.20 C382.30 155.22 382.48 155.23 382.60 155.24 C382.72 155.25 382.75 153.66 382.78 155.25 C382.81 156.83 382.81 163.17 382.78 164.75 Z" fill="url(#gBody)"/>
<g clip-path="url(#cBody)">
<circle cx="346.95" cy="161.02" r="4.44" fill="#D2A03A" opacity="0.90"/>
<circle cx="170.70" cy="150.66" r="4.31" fill="#D2A03A" opacity="0.90"/>
<circle cx="209.46" cy="159.01" r="3.35" fill="#D2A03A" opacity="0.90"/>
<circle cx="250.86" cy="155.52" r="3.40" fill="#D2A03A" opacity="0.90"/>
<circle cx="114.53" cy="162.15" r="3.70" fill="#D2A03A" opacity="0.90"/>
<circle cx="110.99" cy="150.87" r="4.30" fill="#D2A03A" opacity="0.90"/>
<circle cx="318.72" cy="160.29" r="3.60" fill="#D2A03A" opacity="0.90"/>
<circle cx="171.53" cy="168.06" r="3.61" fill="#D2A03A" opacity="0.90"/>
<circle cx="230.89" cy="155.91" r="4.09" fill="#D2A03A" opacity="0.90"/>
<circle cx="283.60" cy="165.35" r="4.28" fill="#D2A03A" opacity="0.90"/>
<circle cx="227.54" cy="145.41" r="3.73" fill="#D2A03A" opacity="0.90"/>
<circle cx="272.47" cy="155.92" r="4.44" fill="#D2A03A" opacity="0.90"/>
<circle cx="261.38" cy="156.47" r="4.23" fill="#D2A03A" opacity="0.90"/>
<circle cx="364.73" cy="157.42" r="3.80" fill="#D2A03A" opacity="0.90"/>
<circle cx="190.04" cy="153.12" r="4.15" fill="#D2A03A" opacity="0.90"/>
<circle cx="181.22" cy="163.88" r="3.62" fill="#D2A03A" opacity="0.90"/>
<circle cx="127.77" cy="150.10" r="4.29" fill="#D2A03A" opacity="0.90"/>
<circle cx="154.48" cy="163.37" r="4.57" fill="#D2A03A" opacity="0.90"/>
<circle cx="265.62" cy="165.73" r="3.69" fill="#D2A03A" opacity="0.90"/>
<circle cx="141.42" cy="154.38" r="3.65" fill="#D2A03A" opacity="0.90"/>
<circle cx="294.85" cy="161.87" r="3.68" fill="#D2A03A" opacity="0.90"/>
<circle cx="205.73" cy="149.61" r="3.51" fill="#D2A03A" opacity="0.90"/>
<circle cx="199.83" cy="162.05" r="4.45" fill="#D2A03A" opacity="0.90"/>
<circle cx="310.10" cy="155.11" r="3.51" fill="#D2A03A" opacity="0.90"/>
<circle cx="334.81" cy="157.35" r="4.24" fill="#D2A03A" opacity="0.90"/>
<circle cx="289.37" cy="153.78" r="3.22" fill="#D2A03A" opacity="0.90"/>
<circle cx="134.80" cy="164.61" r="3.22" fill="#D2A03A" opacity="0.90"/>
<circle cx="219.35" cy="166.00" r="4.19" fill="#D2A03A" opacity="0.90"/>
<circle cx="124.45" cy="165.90" r="4.10" fill="#D2A03A" opacity="0.90"/>
<circle cx="244.80" cy="166.45" r="4.54" fill="#D2A03A" opacity="0.90"/>
<path d="M61.13 148.45 C63.60 147.84 70.98 145.95 75.91 144.79 C80.83 143.64 85.75 142.54 90.68 141.52 C95.60 140.50 100.53 139.54 105.45 138.66 C110.37 137.77 115.30 136.96 120.22 136.23 C125.15 135.50 130.07 134.84 134.99 134.27 C139.92 133.71 144.84 133.22 149.77 132.85 C154.69 132.48 159.61 132.19 164.54 132.07 C169.46 131.95 174.39 132.03 179.31 132.12 C184.23 132.21 189.16 132.37 194.08 132.59 C199.01 132.81 203.93 133.09 208.85 133.43 C213.78 133.78 218.70 134.18 223.63 134.64 C228.55 135.11 233.47 135.63 238.40 136.21 C243.32 136.79 248.25 137.43 253.17 138.12 C258.09 138.80 263.02 139.55 267.94 140.34 C272.87 141.13 280.25 142.44 282.71 142.86" fill="none" stroke="#FFFFFF" stroke-width="5.00" stroke-linejoin="round" stroke-linecap="round" opacity="0.22"/>
<path d="M53.99 173.59 C57.16 174.34 66.69 176.71 73.05 178.11 C79.40 179.50 85.75 180.79 92.11 181.95 C98.46 183.12 104.81 184.17 111.17 185.10 C117.52 186.02 123.88 186.83 130.23 187.50 C136.58 188.17 142.94 188.72 149.29 189.09 C155.64 189.47 162.00 189.68 168.35 189.73 C174.70 189.79 181.06 189.64 187.41 189.45 C193.76 189.26 200.12 188.98 206.47 188.60 C212.83 188.23 219.18 187.76 225.53 187.21 C231.89 186.65 238.24 186.00 244.59 185.28 C250.95 184.55 257.30 183.74 263.65 182.85 C270.01 181.97 276.36 181.00 282.71 179.98 C289.07 178.95 295.42 177.85 301.78 176.71 C308.13 175.57 314.48 174.36 320.84 173.14 C327.19 171.92 336.72 170.03 339.90 169.40" fill="none" stroke="#0B1A1E" stroke-width="7.00" stroke-linejoin="round" stroke-linecap="round" opacity="0.10"/>
</g>
<path d="M382.60 164.76 C382.51 164.77 382.30 164.78 382.06 164.79 C381.82 164.81 381.53 164.84 381.17 164.87 C380.81 164.91 380.39 164.95 379.91 165.00 C379.43 165.05 378.90 165.12 378.30 165.19 C377.71 165.27 377.05 165.35 376.34 165.45 C375.63 165.55 374.86 165.66 374.04 165.79 C373.21 165.91 372.33 166.05 371.39 166.20 C370.45 166.35 369.45 166.52 368.40 166.70 C367.35 166.87 366.25 167.07 365.09 167.27 C363.93 167.48 362.71 167.70 361.45 167.93 C360.18 168.16 358.86 168.40 357.49 168.66 C356.12 168.92 354.69 169.19 353.22 169.48 C351.75 169.76 350.23 170.05 348.66 170.36 C347.09 170.67 345.46 170.99 343.80 171.31 C342.13 171.64 340.42 171.98 338.66 172.33 C336.90 172.67 335.10 173.03 333.25 173.40 C331.40 173.76 329.51 174.13 327.58 174.51 C325.65 174.89 323.67 175.27 321.66 175.66 C319.65 176.05 317.59 176.45 315.50 176.84 C313.41 177.24 311.29 177.64 309.12 178.04 C306.96 178.45 304.76 178.85 302.53 179.25 C300.30 179.66 298.04 180.06 295.74 180.46 C293.45 180.86 291.12 181.26 288.77 181.66 C286.41 182.05 284.03 182.45 281.62 182.83 C279.21 183.22 276.78 183.60 274.32 183.98 C271.86 184.35 269.38 184.72 266.88 185.08 C264.38 185.44 261.85 185.79 259.31 186.13 C256.77 186.47 254.20 186.80 251.63 187.12 C249.05 187.44 246.46 187.75 243.85 188.04 C241.25 188.34 238.63 188.62 236.00 188.89 C233.37 189.16 230.72 189.42 228.08 189.66 C225.43 189.90 222.77 190.13 220.11 190.34 C217.45 190.55 214.78 190.75 212.11 190.93 C209.44 191.11 206.76 191.27 204.09 191.42 C201.42 191.57 198.74 191.70 196.07 191.82 C193.40 191.93 190.73 192.03 188.07 192.11 C185.41 192.19 182.75 192.26 180.10 192.31 C177.45 192.36 174.81 192.39 172.18 192.40 C169.55 192.42 166.93 192.42 164.33 192.38 C161.72 192.33 159.13 192.25 156.55 192.14 C153.97 192.04 151.41 191.90 148.87 191.75 C146.33 191.59 143.80 191.41 141.30 191.21 C138.80 191.01 136.32 190.79 133.86 190.55 C131.40 190.31 128.96 190.05 126.56 189.78 C124.15 189.51 121.77 189.21 119.41 188.91 C117.06 188.61 114.73 188.29 112.44 187.96 C110.14 187.63 107.88 187.29 105.65 186.94 C103.42 186.59 101.22 186.23 99.06 185.86 C96.89 185.50 94.76 185.12 92.68 184.74 C90.59 184.36 88.53 183.97 86.52 183.58 C84.51 183.19 82.53 182.79 80.60 182.39 C78.67 182.00 76.78 181.60 74.93 181.20 C73.08 180.80 71.28 180.40 69.52 180.00 C67.76 179.60 66.05 179.21 64.38 178.82 C62.71 178.42 61.09 178.03 59.52 177.65 C57.95 177.27 56.43 176.89 54.96 176.52 C53.48 176.15 52.06 175.78 50.69 175.42 C49.32 175.07 48.00 174.72 46.73 174.38 C45.47 174.04 44.25 173.71 43.09 173.40 C41.93 173.08 40.83 172.78 39.78 172.48 C38.72 172.19 37.73 171.91 36.79 171.64 C35.85 171.37 34.97 171.12 34.14 170.88 C33.32 170.64 32.55 170.42 31.83 170.21 C31.12 170.00 30.47 169.81 29.88 169.64 C29.28 169.46 28.74 169.30 28.27 169.16 C27.79 169.01 27.37 168.89 27.01 168.78 C26.65 168.67 26.35 168.58 26.11 168.51 C25.88 168.44 25.70 168.38 25.58 168.35 C25.46 168.31 25.85 168.87 25.40 168.29 C24.94 167.72 23.41 166.31 22.85 164.90 C22.28 163.48 22.00 161.50 22.00 159.80 C22.00 158.11 22.28 156.13 22.85 154.71 C23.41 153.30 24.94 151.89 25.40 151.32 C25.85 150.74 25.46 151.30 25.58 151.26 C25.70 151.22 25.88 151.16 26.11 151.09 C26.35 151.01 26.65 150.92 27.01 150.80 C27.37 150.69 27.79 150.56 28.27 150.41 C28.74 150.26 29.28 150.09 29.88 149.90 C30.47 149.72 31.12 149.51 31.83 149.30 C32.55 149.08 33.32 148.84 34.14 148.59 C34.97 148.34 35.85 148.07 36.79 147.79 C37.73 147.50 38.72 147.21 39.78 146.89 C40.83 146.58 41.93 146.26 43.09 145.92 C44.25 145.59 45.47 145.24 46.73 144.88 C48.00 144.52 49.32 144.14 50.69 143.76 C52.06 143.38 53.48 142.99 54.96 142.59 C56.43 142.19 57.95 141.78 59.52 141.37 C61.09 140.96 62.71 140.54 64.38 140.11 C66.05 139.69 67.76 139.25 69.52 138.82 C71.28 138.39 73.08 137.95 74.93 137.52 C76.78 137.08 78.67 136.64 80.60 136.20 C82.53 135.77 84.51 135.33 86.52 134.89 C88.53 134.46 90.59 134.03 92.68 133.60 C94.76 133.18 96.89 132.75 99.06 132.34 C101.22 131.92 103.42 131.51 105.65 131.11 C107.88 130.72 110.14 130.32 112.44 129.95 C114.73 129.57 117.06 129.20 119.41 128.84 C121.77 128.49 124.15 128.15 126.56 127.82 C128.96 127.50 131.40 127.19 133.86 126.90 C136.32 126.61 138.80 126.34 141.30 126.09 C143.80 125.85 146.33 125.62 148.87 125.42 C151.41 125.22 153.97 125.04 156.55 124.90 C159.13 124.76 161.72 124.64 164.33 124.57 C166.93 124.51 169.55 124.51 172.18 124.52 C174.81 124.53 177.45 124.58 180.10 124.63 C182.75 124.69 185.41 124.76 188.07 124.85 C190.73 124.94 193.40 125.05 196.07 125.18 C198.74 125.31 201.42 125.45 204.09 125.62 C206.76 125.78 209.44 125.96 212.11 126.16 C214.78 126.36 217.45 126.58 220.11 126.82 C222.77 127.05 225.43 127.31 228.08 127.57 C230.72 127.84 233.37 128.13 236.00 128.43 C238.63 128.73 241.25 129.04 243.85 129.37 C246.46 129.70 249.05 130.04 251.63 130.40 C254.20 130.75 256.77 131.12 259.31 131.50 C261.85 131.88 264.38 132.27 266.88 132.67 C269.38 133.06 271.86 133.47 274.32 133.89 C276.78 134.30 279.21 134.73 281.62 135.16 C284.03 135.59 286.41 136.03 288.77 136.46 C291.12 136.90 293.45 137.35 295.74 137.79 C298.04 138.24 300.30 138.69 302.53 139.14 C304.76 139.58 306.96 140.03 309.12 140.48 C311.29 140.93 313.41 141.37 315.50 141.81 C317.59 142.25 319.65 142.69 321.66 143.12 C323.67 143.56 325.65 143.99 327.58 144.41 C329.51 144.83 331.40 145.24 333.25 145.64 C335.10 146.05 336.90 146.45 338.66 146.83 C340.42 147.22 342.13 147.59 343.80 147.96 C345.46 148.32 347.09 148.68 348.66 149.02 C350.23 149.36 351.75 149.69 353.22 150.00 C354.69 150.31 356.12 150.62 357.49 150.90 C358.86 151.19 360.18 151.46 361.45 151.72 C362.71 151.98 363.93 152.22 365.09 152.45 C366.25 152.68 367.35 152.89 368.40 153.09 C369.45 153.29 370.45 153.47 371.39 153.64 C372.33 153.80 373.21 153.96 374.04 154.10 C374.86 154.23 375.63 154.36 376.34 154.47 C377.05 154.58 377.71 154.67 378.30 154.76 C378.90 154.84 379.43 154.91 379.91 154.97 C380.39 155.03 380.81 155.08 381.17 155.12 C381.53 155.15 381.82 155.18 382.06 155.20 C382.30 155.22 382.51 155.23 382.60 155.24" fill="none" stroke="#0B1A1E" stroke-width="3.00" stroke-linejoin="round" stroke-linecap="round"/>
<path d="M121.89 152.78 C124.18 152.70 131.04 152.45 135.62 152.31 C140.20 152.17 144.78 152.04 149.35 151.94 C153.93 151.84 158.51 151.75 163.08 151.71 C167.66 151.66 172.24 151.68 176.81 151.69 C181.39 151.70 185.97 151.73 190.55 151.78 C195.12 151.82 199.70 151.87 204.28 151.94 C208.85 152.01 213.43 152.09 218.01 152.18 C222.59 152.28 227.16 152.38 231.74 152.50 C236.32 152.62 240.89 152.75 245.47 152.89 C250.05 153.03 254.63 153.18 259.20 153.35 C263.78 153.51 268.36 153.68 272.93 153.87 C277.51 154.05 282.09 154.25 286.66 154.45 C291.24 154.65 295.82 154.86 300.40 155.08 C304.97 155.30 309.55 155.53 314.13 155.76 C318.70 155.99 323.28 156.22 327.86 156.46 C332.44 156.70 337.01 156.94 341.59 157.18 C346.17 157.42 350.74 157.67 355.32 157.90 C359.90 158.13 364.48 158.37 369.05 158.56 C373.63 158.75 380.49 158.97 382.78 159.05" fill="none" stroke="#0B1A1E" stroke-width="1.40" stroke-linejoin="round" stroke-linecap="round" opacity="0.30"/>
<path d="M98.66 135.92 C100.98 138.99 111.11 148.40 112.60 154.36 C114.09 160.31 110.81 166.55 107.59 171.64 C104.38 176.73 95.68 182.69 93.30 184.90" fill="none" stroke="#0B1A1E" stroke-width="2.00" stroke-linejoin="round" stroke-linecap="round" opacity="0.55"/>
<path d="M22.34 159.80 C24.98 160.22 32.89 162.07 38.16 162.31 C43.44 162.54 51.35 161.41 53.99 161.23" fill="none" stroke="#0B1A1E" stroke-width="2.40" stroke-linejoin="round" stroke-linecap="round"/>
<path d="M109.34 146.24 C113.97 145.06 126.68 148.25 133.89 151.26 C141.10 154.28 152.59 164.31 152.59 164.31 C152.59 164.31 140.24 165.74 132.50 164.75 C124.75 163.75 109.96 161.41 106.10 158.32 C102.24 155.24 104.70 147.42 109.34 146.24 Z" fill="#8EA2AE" stroke="#0B1A1E" stroke-width="2.40" stroke-linejoin="round"/>
<path d="M111.17 153.21 C117.67 154.34 143.68 158.90 150.19 160.03" fill="none" stroke="#0B1A1E" stroke-width="1.00" stroke-linejoin="round" opacity="0.30"/>
<path d="M111.17 153.21 C117.52 154.91 142.93 161.72 149.28 163.42" fill="none" stroke="#0B1A1E" stroke-width="1.00" stroke-linejoin="round" opacity="0.30"/>
<path d="M111.17 153.21 C117.37 155.47 142.17 164.53 148.37 166.80" fill="none" stroke="#0B1A1E" stroke-width="1.00" stroke-linejoin="round" opacity="0.30"/>
<circle cx="68.28" cy="152.52" r="8.58" fill="#D9CFA8" stroke="#0B1A1E" stroke-width="2.20" stroke-linejoin="round"/>
<circle cx="68.28" cy="152.52" r="5.15" fill="#0B1A1E"/>
<circle cx="66.14" cy="150.12" r="1.72" fill="#FFFFFF" opacity="0.95"/>
</svg>